<?xml version="1.0" encoding="utf-8"?>
<!-- Generator: Adobe Illustrator 23.0.1, SVG Export Plug-In . SVG Version: 6.00 Build 0)  -->
<svg version="1.1" id="圖層_1" xmlns="http://www.w3.org/2000/svg" xmlns:xlink="http://www.w3.org/1999/xlink" x="0px" y="0px"
	 viewBox="0 0 170.6 57.5" style="enable-background:new 0 0 170.6 57.5;" xml:space="preserve">
<style type="text/css">
	.st0{fill:#1B95D4;stroke:#FFFFFF;stroke-width:9;stroke-linecap:round;stroke-linejoin:round;}
	.st1{fill:#030516;stroke:#FFFFFF;stroke-width:9;stroke-linecap:round;stroke-linejoin:round;}
	.st2{fill:#1B95D4;}
	.st3{fill:#030516;}
</style>
<g id="ribbon">
	<path class="st0" d="M68.5,24l0.9-4.2c-1.6,0.2-3.3,0.4-5,0.5s-2.6-0.9-2.2-2.8c0.2-1.3,1.2-2.4,2.5-2.7c2.2-0.2,4.1-0.4,6-0.7
		l0.6-2.7c0.1-0.6,0.5-1.2,1-1.7c0.7-0.5,1.6-0.8,2.5-0.8c0.7,0,1.4,0.2,2,0.6c0.5,0.5,0.6,1.2,0.5,1.8L76.9,13
		c1-0.1,1.9-0.3,2.8-0.5c0.6-0.2,1.2-0.3,1.8-0.3c1,0,1.6,0.3,1.8,0.8c0.4,0.6,0.6,1.3,0.4,2c-0.1,0.8-0.6,1.5-1.3,1.9
		c-2.2,0.8-4.4,1.4-6.7,1.8l-1.1,5.1h4.7c0.7-0.1,1.3,0.1,1.8,0.5c0.4,0.3,0.5,1,0.3,2.1c-0.1,0.7-0.4,1.4-0.8,1.9
		c-0.7,0.6-1.5,1-2.4,0.9h-4.7L73,31.6c-0.2,0.8-0.4,1.5-0.5,2.1h4.9c0.8-0.1,1.6,0.1,2.2,0.6c0.4,0.4,0.4,1.1,0.2,2.2
		c-0.1,0.8-0.5,1.4-1,2c-0.7,0.6-1.7,1-2.6,1h-6.1c-0.6,1.1-1.2,2.1-2,3c-1.9,2.6-4.2,5-6.9,6.8c-0.8,0.4-1.6,0.6-2.4,0.5
		c-0.8-0.1-1.6-0.5-2-1.2c-0.3-0.5-0.4-1.1-0.3-1.7c0.2-0.8,0.6-1.5,1.1-2.1c1.2-1,2.4-2.1,3.7-3.3c0.7-0.7,1.4-1.4,2-2.2h-3.7
		c-0.8,0.1-1.6-0.2-2.1-0.7c-0.4-0.7-0.5-1.5-0.2-2.2c0.1-0.9,0.5-1.6,1.1-2.2c0.7-0.5,1.6-0.7,2.4-0.6h5.5c0.2-0.7,0.4-1.4,0.6-2.1
		l0.5-2.4h-4.7c-0.7,0.1-1.3-0.2-1.7-0.7c-0.5-0.4-0.5-1.1-0.3-2.2c0.1-0.9,0.5-1.6,1.2-2.2c0.6-0.3,1.3-0.5,2-0.5L68.5,24z
		 M102,14.5c-0.6,3-2.2,6.8-4.9,11.6c0.8,3.5,0.9,7.2,0.1,10.8c-0.6,2.7-1.5,4.6-2.7,5.8c-1.3,1.5-3.3,2.3-5.3,2.3
		c-1.6,0-3.1-0.3-4.6-0.9L83.8,48c-0.4,1.5-1.5,2.2-3.3,2.3c-1.8-0.1-2.6-0.8-2.4-2.3l7.2-33.9c0.4-2.1,1.5-3.1,3.1-3.1h10.9
		C101.6,10.9,102.5,12.1,102,14.5 M88.5,38.9c1,0,1.9-0.5,2.3-1.3c0.5-0.9,0.8-1.9,1-2.9c0.4-2.2,0.2-4.4-0.6-6.4
		c-0.2-0.6-0.2-1.2-0.1-1.9c0.1-0.5,0.3-1,0.7-1.4c1.8-2.5,3.1-5.3,3.8-8.2c0-0.2-0.1-0.3-0.3-0.3h-4.9l-4.7,22.1
		C86.7,38.8,87.6,38.9,88.5,38.9"/>
	<path class="st1" d="M112.2,22.9c0.1-0.3,0.3-0.6,0.5-0.8c0.5-0.3,1-0.5,1.6-0.4c0.5-0.1,1,0.1,1.4,0.4c0.2,0.2,0.3,0.5,0.2,0.8
		h4.1c0.2,0,0.5,0,0.7,0.2c0.1,0.1,0.2,0.4,0.1,0.8c0,0.3-0.1,0.5-0.3,0.7S120,25,119.6,25h-4l-0.2,0.8h4.5c0.2,0,0.5,0.1,0.7,0.2
		c0.1,0.1,0.2,0.4,0.1,0.8c0,0.3-0.1,0.5-0.3,0.8c-0.2,0.2-0.6,0.4-0.9,0.3h-5.3c0.1,0.1,0.1,0.1,0.2,0.2c0.1,0.2,0.2,0.4,0.2,0.6
		h4.4c0.2,0,0.5,0.1,0.7,0.2c0.2,0.2,0.2,0.5,0.1,0.8c0,0.3-0.2,0.5-0.3,0.8c-0.2,0.2-0.5,0.4-0.9,0.4h-4.3l-0.2,0.8
		c1.9-0.1,3.9-0.1,5.8-0.2c0.2,0,0.4,0.1,0.6,0.3c0.1,0.3,0.1,0.5,0,0.8s-0.2,0.6-0.4,0.8s-0.5,0.3-0.8,0.3c-0.1,0-0.2,0-0.3,0
		s0,0.2,0,0.2c-0.1,0.3-0.2,0.6-0.4,0.9h9.4c1.1,0,1.6,0.6,1.4,1.7l-0.9,4.4c-0.1,1-1,1.8-2.1,1.7H118c0.2,0.3,0.3,0.7,0.3,1.1h8.2
		c1.7,0,2.4,0.7,2.1,2.2l-0.3,1.3c-0.1,0.8-0.5,1.6-1.2,2.1c-0.7,0.4-1.5,0.7-2.3,0.6h-1.5c-0.5,0-1,0-1.5-0.1
		c-0.4,0-0.9-0.1-1.2-0.4c-0.2-0.2-0.3-0.6-0.3-0.9c0-0.2,0.1-0.4,0.2-0.5c0.3-0.2,0.7-0.4,1.1-0.5c0.4-0.1,0.8-0.1,1.2-0.1h1.2
		c0.2,0,0.4,0,0.4-0.1l0.2-1c0-0.1-0.1-0.1-0.2-0.1h-6.6l-0.5,2.2c-0.1,0.5-0.3,1-0.7,1.3c-0.5,0.5-1.1,0.8-1.8,0.8
		c-0.6,0.1-1.2-0.2-1.5-0.7c-0.2-0.4-0.3-0.9-0.2-1.4l0.5-2.2h-6.5c-0.1,0-0.3,0.1-0.3,0.2l0,0l-0.4,1.8c-0.3,1-1.2,1.7-2.3,1.6
		c-1.2-0.1-1.8-0.6-1.6-1.6l0.6-2.9c0.2-1.1,1.2-1.7,2.9-1.7h8.1c0.1-0.4,0.4-0.8,0.7-1.1h-8.2c-1.1,0-1.6-0.6-1.4-1.7l0.9-4.4
		c0.1-1,1-1.8,2.1-1.7h6.3c0.1-0.2,0.2-0.5,0.4-0.8c-4.1,0.2-7.4,0.3-10,0.3c-0.4,0-0.7-0.1-0.8-0.3c-0.1-0.3-0.1-0.6,0-0.9
		c0-0.3,0.2-0.6,0.5-0.9c0.3-0.2,0.6-0.2,0.9-0.2c1.6,0,3.1-0.1,4.6-0.2l0.2-0.9h-4c-0.2,0-0.5-0.1-0.6-0.3
		c-0.2-0.1-0.2-0.4-0.1-0.8c0-0.3,0.2-0.6,0.4-0.8c0.2-0.1,0.5-0.2,0.7-0.2h4.1c0.1-0.2,0.2-0.4,0.4-0.5c0.1-0.1,0.2-0.1,0.3-0.2h-5
		c-0.3,0-0.5-0.1-0.6-0.3c-0.2-0.1-0.2-0.4-0.1-0.8c0-0.3,0.2-0.6,0.4-0.8c0.2-0.1,0.5-0.2,0.8-0.2h4.5l0.2-0.8h-3.9
		c-0.2,0-0.5-0.1-0.6-0.2c-0.2-0.2-0.2-0.4-0.1-0.8c0-0.3,0.2-0.6,0.4-0.8c0.2-0.1,0.5-0.2,0.7-0.2L112.2,22.9z M124.4,39.8l0.2-0.8
		h-14.8l-0.1,0.8c-0.1,0.2,0.1,0.3,0.3,0.3h14.1C124.2,40.2,124.4,40.1,124.4,39.8C124.4,39.9,124.4,39.9,124.4,39.8 M124.9,37.5
		l0.1-0.6c0.1-0.2-0.1-0.4-0.3-0.4h-14.1c-0.2,0-0.4,0.1-0.4,0.4l-0.1,0.6H124.9z M128.1,23.8l0.1-0.5c0.2-0.9,0.9-1.4,2.1-1.5
		s1.7,0.5,1.5,1.5l-0.1,0.5h1.9c0.3,0,0.7,0.1,0.9,0.3c0.2,0.2,0.2,0.5,0.1,1.1c-0.1,0.4-0.2,0.7-0.4,1c-0.3,0.3-0.8,0.5-1.2,0.5
		h-1.9l-1,4.5c-0.2,0.8-0.6,1.5-1.3,2c-0.7,0.6-1.6,0.9-2.5,0.9s-1.8-0.2-2.7-0.5c-0.4-0.2-0.6-0.7-0.4-1.3l0.1-0.2
		c-0.1,0-0.2,0-0.3,0c-0.4,0.1-0.7,0-1-0.2c-0.2-0.1-0.2-0.3-0.2-0.5c-0.2-0.6-0.4-1.4-0.8-2.4c0-0.1,0-0.2,0-0.2
		c0-0.2,0.1-0.4,0.2-0.6c0.2-0.3,0.5-0.5,0.8-0.6c0.2-0.1,0.5-0.1,0.7-0.1c0.4,0,0.9,0.1,1.1,0.5c0.3,0.5,0.6,1,0.7,1.6
		c0.1,0.4,0.2,0.9,0.1,1.3l0,0c0,0,0,0,0.1,0c0.3,0.2,0.6,0.3,1,0.3c0.5,0,0.8-0.2,0.9-0.6l0.8-3.8h-5.5c-0.3,0-0.7-0.1-0.9-0.4
		c-0.2-0.2-0.3-0.5-0.1-1.1c0.1-0.4,0.3-0.8,0.6-1.1c0.3-0.2,0.7-0.3,1-0.2L128.1,23.8z"/>
	<path class="st1" d="M140.9,28.2c0.1,0.1,0.1,0.1,0.1,0.1l0.9-4.4c0.1-0.6,0.4-1.1,0.9-1.5c0.4-0.4,1-0.6,1.6-0.6
		c0.5,0,1,0.2,1.4,0.6c0.3,0.4,0.4,1,0.3,1.5l-0.8,3.6l0.2-0.1c0.2-0.1,0.5-0.1,0.7-0.2c0.4,0,0.9,0.1,1.1,0.5c0.5,1,0.8,2,0.9,3.1
		c0.2,0.8,0.2,1.6,0.1,2.5c-0.1,0.4-0.2,0.7-0.5,1c-0.4,0.3-0.8,0.5-1.3,0.5c-0.4,0-0.7,0-1.1-0.2c-0.2-0.1-0.3-0.3-0.2-0.5
		c-0.1-1-0.3-2.1-0.5-3.5L141,48.1c-0.1,0.5-0.3,1-0.7,1.3c-0.5,0.5-1.2,0.8-1.9,0.8c-0.6,0.1-1.1-0.2-1.4-0.7
		c-0.2-0.4-0.3-0.9-0.2-1.4l3.3-15.4c-0.7,1.9-1.6,3.8-2.5,5.7c-0.4,0.6-1.1,0.9-1.8,0.8c-0.5,0-0.9-0.1-1.2-0.5
		c-0.3-0.2-0.4-0.7-0.2-1.3c0.1-0.4,0.2-0.8,0.4-1.1c1.4-2.5,2.5-5,3.6-7.6c0.2-0.5,0.7-0.8,1.3-0.8C140,27.8,140.5,27.9,140.9,28.2
		 M159.1,22.3c0.4,0.4,0.5,1,0.3,1.5l-0.5,2.5h4.4c0.5,0,1,0.1,1.3,0.4c0.3,0.2,0.4,0.8,0.2,1.6c-0.1,0.5-0.3,1-0.6,1.4
		c-0.5,0.5-1.1,0.7-1.8,0.7h-7.9l-2.8,13.3c-0.1,0.7,0.1,1,0.8,1h7.1c1.1,0,1.5,0.7,1.1,2s-1,2.1-2,2.1h-8.6c-2.5,0-3.5-1.3-3-3.8
		l3.1-14.6h-0.6c-0.5,0-1-0.1-1.3-0.5c-0.3-0.3-0.4-0.8-0.2-1.6c0.1-0.6,0.4-1.2,0.9-1.6c0.4-0.3,1-0.5,1.5-0.4h4l0.5-2.5
		c0.2-0.6,0.5-1.1,1-1.5c0.5-0.3,1.1-0.5,1.6-0.4C158.1,21.8,158.6,22,159.1,22.3"/>
	<path class="st0" d="M10.2,23.4c0.5-2.2,1.8-4.1,5-4.1s3.7,1.9,3.2,4.1l-4.8,22.7c-0.5,2.2-1.8,4.1-5,4.1s-3.7-1.9-3.2-4.1
		L10.2,23.4z"/>
	<path class="st0" d="M37.8,16.6h-8.7c-2.6,0-4.5-1.4-4-3.9s3-3.9,5.6-3.9h26.7c2.6,0,4.5,1.4,3.9,3.9s-2.9,3.9-5.6,3.9h-8.6
		L41,45.5c-0.5,2.7-2.9,4.6-5.6,4.6c-2.8,0-4.2-1.9-3.6-4.6L37.8,16.6z"/>
	<path class="st1" d="M5.1,9.9c0-2.8,3-5.2,6.8-5.2s6.8,2.3,6.8,5.2s-3,5.2-6.8,5.2S5.1,12.7,5.1,9.9"/>
	<polygon class="st1" points="9.8,13.2 16,16.9 16,12.1 	"/>
	<path class="st2" d="M68.5,24l0.9-4.2c-1.6,0.2-3.3,0.4-5,0.5s-2.6-0.9-2.2-2.8c0.2-1.3,1.2-2.4,2.5-2.7c2.2-0.2,4.1-0.4,6-0.7
		l0.6-2.7c0.1-0.6,0.5-1.2,1-1.7c0.7-0.5,1.6-0.8,2.5-0.8c0.7,0,1.4,0.2,2,0.6c0.5,0.5,0.6,1.2,0.5,1.8L76.9,13
		c1-0.1,1.9-0.3,2.8-0.5c0.6-0.2,1.2-0.3,1.8-0.3c1,0,1.6,0.3,1.8,0.8c0.4,0.6,0.6,1.3,0.4,2c-0.1,0.8-0.6,1.5-1.3,1.9
		c-2.2,0.8-4.4,1.4-6.7,1.8l-1.1,5.1h4.7c0.7-0.1,1.3,0.1,1.8,0.5c0.4,0.3,0.5,1,0.3,2.1c-0.1,0.7-0.4,1.4-0.8,1.9
		c-0.7,0.6-1.5,1-2.4,0.9h-4.7L73,31.6c-0.2,0.8-0.4,1.5-0.5,2.1h4.9c0.8-0.1,1.6,0.1,2.2,0.6c0.4,0.4,0.4,1.1,0.2,2.2
		c-0.1,0.8-0.5,1.4-1,2c-0.7,0.6-1.7,1-2.6,1h-6.1c-0.6,1.1-1.2,2.1-2,3c-1.9,2.6-4.2,5-6.9,6.8c-0.8,0.4-1.6,0.6-2.4,0.5
		c-0.8-0.1-1.6-0.5-2-1.2c-0.3-0.5-0.4-1.1-0.3-1.7c0.2-0.8,0.6-1.5,1.1-2.1c1.2-1,2.4-2.1,3.7-3.3c0.7-0.7,1.4-1.4,2-2.2h-3.7
		c-0.8,0.1-1.6-0.2-2.1-0.7c-0.4-0.7-0.5-1.5-0.2-2.2c0.1-0.9,0.5-1.6,1.1-2.2c0.7-0.5,1.6-0.7,2.4-0.6h5.5c0.2-0.7,0.4-1.4,0.6-2.1
		l0.5-2.4h-4.7c-0.7,0.1-1.3-0.2-1.7-0.7c-0.5-0.4-0.5-1.1-0.3-2.2c0.1-0.9,0.5-1.6,1.2-2.2c0.6-0.3,1.3-0.5,2-0.5L68.5,24z
		 M102,14.5c-0.6,3-2.2,6.8-4.9,11.6c0.8,3.5,0.9,7.2,0.1,10.8c-0.6,2.7-1.5,4.6-2.7,5.8c-1.3,1.5-3.3,2.3-5.3,2.3
		c-1.6,0-3.1-0.3-4.6-0.9L83.8,48c-0.4,1.5-1.5,2.2-3.3,2.3c-1.8-0.1-2.6-0.8-2.4-2.3l7.2-33.9c0.4-2.1,1.5-3.1,3.1-3.1h10.9
		C101.6,10.9,102.5,12.1,102,14.5 M88.5,38.9c1,0,1.9-0.5,2.3-1.3c0.5-0.9,0.8-1.9,1-2.9c0.4-2.2,0.2-4.4-0.6-6.4
		c-0.2-0.6-0.2-1.2-0.1-1.9c0.1-0.5,0.3-1,0.7-1.4c1.8-2.5,3.1-5.3,3.8-8.2c0-0.2-0.1-0.3-0.3-0.3h-4.9l-4.7,22.1
		C86.7,38.8,87.6,38.9,88.5,38.9"/>
	<path class="st3" d="M112.2,22.9c0.1-0.3,0.3-0.6,0.5-0.8c0.5-0.3,1-0.5,1.6-0.4c0.5-0.1,1,0.1,1.4,0.4c0.2,0.2,0.3,0.5,0.2,0.8
		h4.1c0.2,0,0.5,0,0.7,0.2c0.1,0.1,0.2,0.4,0.1,0.8c0,0.3-0.1,0.5-0.3,0.7S120,25,119.6,25h-4l-0.2,0.8h4.5c0.2,0,0.5,0.1,0.7,0.2
		c0.1,0.1,0.2,0.4,0.1,0.8c0,0.3-0.1,0.5-0.3,0.8c-0.2,0.2-0.6,0.4-0.9,0.3h-5.3c0.1,0.1,0.1,0.1,0.2,0.2c0.1,0.2,0.2,0.4,0.2,0.6
		h4.4c0.2,0,0.5,0.1,0.7,0.2c0.2,0.2,0.2,0.5,0.1,0.8c0,0.3-0.2,0.5-0.3,0.8c-0.2,0.2-0.5,0.4-0.9,0.4h-4.3l-0.2,0.8
		c1.9-0.1,3.9-0.1,5.8-0.2c0.2,0,0.4,0.1,0.6,0.3c0.1,0.3,0.1,0.5,0,0.8s-0.2,0.6-0.4,0.8s-0.5,0.3-0.8,0.3c-0.1,0-0.2,0-0.3,0
		s0,0.2,0,0.2c-0.1,0.3-0.2,0.6-0.4,0.9h9.4c1.1,0,1.6,0.6,1.4,1.7l-0.9,4.4c-0.1,1-1,1.8-2.1,1.7H118c0.2,0.3,0.3,0.7,0.3,1.1h8.2
		c1.7,0,2.4,0.7,2.1,2.2l-0.3,1.3c-0.1,0.8-0.5,1.6-1.2,2.1c-0.7,0.4-1.5,0.7-2.3,0.6h-1.5c-0.5,0-1,0-1.5-0.1
		c-0.4,0-0.9-0.1-1.2-0.4c-0.2-0.2-0.3-0.6-0.3-0.9c0-0.2,0.1-0.4,0.2-0.5c0.3-0.2,0.7-0.4,1.1-0.5c0.4-0.1,0.8-0.1,1.2-0.1h1.2
		c0.2,0,0.4,0,0.4-0.1l0.2-1c0-0.1-0.1-0.1-0.2-0.1h-6.6l-0.5,2.2c-0.1,0.5-0.3,1-0.7,1.3c-0.5,0.5-1.1,0.8-1.8,0.8
		c-0.6,0.1-1.2-0.2-1.5-0.7c-0.2-0.4-0.3-0.9-0.2-1.4l0.5-2.2h-6.5c-0.1,0-0.3,0.1-0.3,0.2l0,0l-0.4,1.8c-0.3,1-1.2,1.7-2.3,1.6
		c-1.2-0.1-1.8-0.6-1.6-1.6l0.6-2.9c0.2-1.1,1.2-1.7,2.9-1.7h8.1c0.1-0.4,0.4-0.8,0.7-1.1h-8.2c-1.1,0-1.6-0.6-1.4-1.7l0.9-4.4
		c0.1-1,1-1.8,2.1-1.7h6.3c0.1-0.2,0.2-0.5,0.4-0.8c-4.1,0.2-7.4,0.3-10,0.3c-0.4,0-0.7-0.1-0.8-0.3c-0.1-0.3-0.1-0.6,0-0.9
		c0-0.3,0.2-0.6,0.5-0.9c0.3-0.2,0.6-0.2,0.9-0.2c1.6,0,3.1-0.1,4.6-0.2l0.2-0.9h-4c-0.2,0-0.5-0.1-0.6-0.3
		c-0.2-0.1-0.2-0.4-0.1-0.8c0-0.3,0.2-0.6,0.4-0.8c0.2-0.1,0.5-0.2,0.7-0.2h4.1c0.1-0.2,0.2-0.4,0.4-0.5c0.1-0.1,0.2-0.1,0.3-0.2h-5
		c-0.3,0-0.5-0.1-0.6-0.3c-0.2-0.1-0.2-0.4-0.1-0.8c0-0.3,0.2-0.6,0.4-0.8c0.2-0.1,0.5-0.2,0.8-0.2h4.5l0.2-0.8h-3.9
		c-0.2,0-0.5-0.1-0.6-0.2c-0.2-0.2-0.2-0.4-0.1-0.8c0-0.3,0.2-0.6,0.4-0.8c0.2-0.1,0.5-0.2,0.7-0.2L112.2,22.9z M124.4,39.8l0.2-0.8
		h-14.8l-0.1,0.8c-0.1,0.2,0.1,0.3,0.3,0.3h14.1C124.2,40.2,124.4,40.1,124.4,39.8C124.4,39.9,124.4,39.9,124.4,39.8 M124.9,37.5
		l0.1-0.6c0.1-0.2-0.1-0.4-0.3-0.4h-14.1c-0.2,0-0.4,0.1-0.4,0.4l-0.1,0.6H124.9z M128.1,23.8l0.1-0.5c0.2-0.9,0.9-1.4,2.1-1.5
		s1.7,0.5,1.5,1.5l-0.1,0.5h1.9c0.3,0,0.7,0.1,0.9,0.3c0.2,0.2,0.2,0.5,0.1,1.1c-0.1,0.4-0.2,0.7-0.4,1c-0.3,0.3-0.8,0.5-1.2,0.5
		h-1.9l-1,4.5c-0.2,0.8-0.6,1.5-1.3,2c-0.7,0.6-1.6,0.9-2.5,0.9s-1.8-0.2-2.7-0.5c-0.4-0.2-0.6-0.7-0.4-1.3l0.1-0.2
		c-0.1,0-0.2,0-0.3,0c-0.4,0.1-0.7,0-1-0.2c-0.2-0.1-0.2-0.3-0.2-0.5c-0.2-0.6-0.4-1.4-0.8-2.4c0-0.1,0-0.2,0-0.2
		c0-0.2,0.1-0.4,0.2-0.6c0.2-0.3,0.5-0.5,0.8-0.6c0.2-0.1,0.5-0.1,0.7-0.1c0.4,0,0.9,0.1,1.1,0.5c0.3,0.5,0.6,1,0.7,1.6
		c0.1,0.4,0.2,0.9,0.1,1.3l0,0c0,0,0,0,0.1,0c0.3,0.2,0.6,0.3,1,0.3c0.5,0,0.8-0.2,0.9-0.6l0.8-3.8h-5.5c-0.3,0-0.7-0.1-0.9-0.4
		c-0.2-0.2-0.3-0.5-0.1-1.1c0.1-0.4,0.3-0.8,0.6-1.1c0.3-0.2,0.7-0.3,1-0.2L128.1,23.8z"/>
	<path class="st3" d="M140.9,28.2c0.1,0.1,0.1,0.1,0.1,0.1l0.9-4.4c0.1-0.6,0.4-1.1,0.9-1.5c0.4-0.4,1-0.6,1.6-0.6
		c0.5,0,1,0.2,1.4,0.6c0.3,0.4,0.4,1,0.3,1.5l-0.8,3.6l0.2-0.1c0.2-0.1,0.5-0.1,0.7-0.2c0.4,0,0.9,0.1,1.1,0.5c0.5,1,0.8,2,0.9,3.1
		c0.2,0.8,0.2,1.6,0.1,2.5c-0.1,0.4-0.2,0.7-0.5,1c-0.4,0.3-0.8,0.5-1.3,0.5c-0.4,0-0.7,0-1.1-0.2c-0.2-0.1-0.3-0.3-0.2-0.5
		c-0.1-1-0.3-2.1-0.5-3.5L141,48.1c-0.1,0.5-0.3,1-0.7,1.3c-0.5,0.5-1.2,0.8-1.9,0.8c-0.6,0.1-1.1-0.2-1.4-0.7
		c-0.2-0.4-0.3-0.9-0.2-1.4l3.3-15.4c-0.7,1.9-1.6,3.8-2.5,5.7c-0.4,0.6-1.1,0.9-1.8,0.8c-0.5,0-0.9-0.1-1.2-0.5
		c-0.3-0.2-0.4-0.7-0.2-1.3c0.1-0.4,0.2-0.8,0.4-1.1c1.4-2.5,2.5-5,3.6-7.6c0.2-0.5,0.7-0.8,1.3-0.8C140,27.8,140.5,27.9,140.9,28.2
		 M159.1,22.3c0.4,0.4,0.5,1,0.3,1.5l-0.5,2.5h4.4c0.5,0,1,0.1,1.3,0.4c0.3,0.2,0.4,0.8,0.2,1.6c-0.1,0.5-0.3,1-0.6,1.4
		c-0.5,0.5-1.1,0.7-1.8,0.7h-7.9l-2.8,13.3c-0.1,0.7,0.1,1,0.8,1h7.1c1.1,0,1.5,0.7,1.1,2s-1,2.1-2,2.1h-8.6c-2.5,0-3.5-1.3-3-3.8
		l3.1-14.6h-0.6c-0.5,0-1-0.1-1.3-0.5c-0.3-0.3-0.4-0.8-0.2-1.6c0.1-0.6,0.4-1.2,0.9-1.6c0.4-0.3,1-0.5,1.5-0.4h4l0.5-2.5
		c0.2-0.6,0.5-1.1,1-1.5c0.5-0.3,1.1-0.5,1.6-0.4C158.1,21.8,158.6,22,159.1,22.3"/>
	<path class="st2" d="M10.2,23.4c0.5-2.2,1.8-4.1,5-4.1s3.7,1.9,3.2,4.1l-4.8,22.7c-0.5,2.2-1.8,4.1-5,4.1s-3.7-1.9-3.2-4.1
		L10.2,23.4z"/>
	<path class="st2" d="M37.8,16.6h-8.7c-2.6,0-4.5-1.4-4-3.9s3-3.9,5.6-3.9h26.7c2.6,0,4.5,1.4,3.9,3.9s-2.9,3.9-5.6,3.9h-8.6
		L41,45.5c-0.5,2.7-2.9,4.6-5.6,4.6c-2.8,0-4.2-1.9-3.6-4.6L37.8,16.6z"/>
	<path class="st3" d="M5.1,9.9c0-2.8,3-5.2,6.8-5.2s6.8,2.3,6.8,5.2s-3,5.2-6.8,5.2S5.1,12.7,5.1,9.9"/>
	<polygon class="st3" points="9.8,13.2 16,16.9 16,12.1 	"/>
</g>
</svg>
