<?xml version="1.0" encoding="utf-8"?>
<!-- Generator: Adobe Illustrator 22.1.0, SVG Export Plug-In . SVG Version: 6.00 Build 0)  -->
<svg version="1.1" id="圖層_1" xmlns="http://www.w3.org/2000/svg" xmlns:xlink="http://www.w3.org/1999/xlink" x="0px" y="0px"
	 viewBox="0 0 194 42" style="enable-background:new 0 0 194 42;" xml:space="preserve">
<style type="text/css">
	.st0{fill:#008FD1;}
</style>
<polygon class="st0" points="4.6,14.2 0.4,40.5 13.2,40.5 17.4,14.2 "/>
<polygon class="st0" points="7,0.3 19.8,0.3 17.8,11.4 5,11.4 "/>
<polygon class="st0" points="22.9,0.3 51.5,0.3 49.6,12.5 42.1,12.1 37.6,40.3 24.1,40.3 28.6,12.1 21,12.5 "/>
<path class="st0" d="M54.9,0.3h12.8l-1.8,11.1l-1.7,7.3h0.2c2.8-2.8,5.6-5.1,9.3-5.1c6.5,0,8.1,4.9,7.2,10.7l-2.6,16.1H65.8
	l2.2-13.6c0.2-1.4,0.3-3.1-1.5-3.1c-2,0-2.7,1.5-2.9,3.1l-2.2,13.6H48.5L54.9,0.3z"/>
<path class="st0" d="M94.4,27.4c-0.3,2.1,1,3.6,3,3.6c2,0,3.8-1.5,4.1-3.6c0.3-2.1-0.8-3.9-3-3.9C96.4,23.6,94.7,25.3,94.4,27.4
	 M113.8,27.6c-1.4,8.7-9.9,13.4-18.1,13.4c-8.2,0-15.2-4.7-13.8-13.4c1.5-9.2,9.5-14.1,18.2-14.1C108.8,13.6,115.3,18.4,113.8,27.6"
	/>
<path class="st0" d="M128.9,18.8h0.4c1.6-3.2,5.1-5.3,8.5-5.3c3.8,0,6.1,2,6.6,5.6h0.3c2.1-3.7,4.8-5.6,8.9-5.6
	c6.3,0,8.3,4.9,7.4,10.5l-2.6,16.3H146l2.1-13c0.2-1.5,0.6-3.5-1.3-3.5c-1.8,0-2.1,2-2.4,3.5l-2.1,13h-12.4l2.1-13
	c0.2-1.5,0.6-3.5-1.3-3.5c-1.8,0-2.1,2-2.4,3.5l-2.1,13h-12.4l4.2-26.3h12.1L128.9,18.8z"/>
<path class="st0" d="M181.1,24c0.3-1.8-0.7-3.4-2.6-3.4c-1.9,0-3.1,1.6-3.4,3.4H181.1z M174.2,29.5c-0.3,2.1-0.4,4.5,2.3,4.5
	c1.3,0,2.5-0.9,2.9-2.2h12.4c-2.7,6.3-10.2,9.3-16.3,9.3c-8.3,0-15.2-4.3-13.7-13.3c1.4-8.7,9-14.2,17.3-14.2
	c9.4,0,15.8,6,13.6,15.9L174.2,29.5L174.2,29.5z"/>
</svg>
