<svg id="圖層_1" data-name="圖層 1" xmlns="http://www.w3.org/2000/svg" viewBox="0 0 663.69 251.38"><path d="M39.82,192.38a65.39,65.39,0,0,1,2.78-17.24l12.78-48.93H11.46l7.23-34.47h88.4L86.52,176.81a27.69,27.69,0,0,0-1.11,6.67c0,10.29,6.11,14.46,15,14.46,6.12,0,11.68-1.67,20-5l8.89,33.36c-12.23,5-25,7.79-42.81,7.79C58.16,234.08,39.82,218,39.82,192.38ZM60.39,48.09C60.39,32.53,74,18.9,91.52,18.9c15.85,0,27.53,8.34,27.53,24.19,0,16.68-13.9,29.19-31.42,29.19C73.73,72.28,60.39,64.5,60.39,48.09Z" style="fill:#008fd1"/><path d="M203.28,87.29H150.46L157.69,50H307.81l-7.23,37.25H247.76L219.4,230.74H174.92Z" style="fill:#008fd1"/><path d="M294,205.32a52.65,52.65,0,0,1,1.43-11.81l6.09-30.07H279l4.29-21.13,24-1.07,9.66-26.85h23.27l-5.72,26.85h35.8l-4.3,22.2H329.78l-6.08,28.64a24.5,24.5,0,0,0-.72,6.44c0,8.23,4.83,11.1,11.46,11.1,6.8,0,13.6-3.22,18.61-6.45L361.64,223c-8.05,5.55-21.83,9.85-36.15,9.85C303.29,232.89,294,222.15,294,205.32Z"/><path d="M368.09,198.16c0-32.93,22.91-59.07,47.61-59.07,11.46,0,19.69,4.3,23.63,11.1H440l3.94-8.95h22.91L449,230.74H425.72V218.93H425c-8.24,8.95-18.62,14-28.11,14C379.18,232.89,368.09,220.36,368.09,198.16Zm59.07-1.07,5.9-27.93c-2.5-4.65-8.23-6.8-12-6.8-12.17,0-23.27,13.25-23.27,32.22,0,10.56,3.94,15,10,15C413.55,209.62,421.07,206,427.16,197.09Z"/><path d="M478.71,203.17a47.91,47.91,0,0,1,1.43-11.81l14.68-63h-24l4.65-22.19h52.27L507.7,195.3a23.73,23.73,0,0,0-.71,6.08c0,5.73,4.29,8.24,9.31,8.24,5.19,0,8.23-1.08,14-3.58L536,227.16c-9.67,4.3-18.26,5.73-28.64,5.73C490.52,232.89,478.71,221.79,478.71,203.17Z"/><path d="M568.92,106.16h28.64l-14,68h.71l35.45-32.94h32.93L604,186.71l-27.56,23.62-3.94,20.41H543.86ZM609.73,172l27.21,58.71h-29l-16.47-39Z"/></svg>