<?xml version="1.0" encoding="utf-8"?>
<!-- Generator: Adobe Illustrator 24.1.0, SVG Export Plug-In . SVG Version: 6.00 Build 0)  -->
<svg version="1.1" id="圖層_1" xmlns="http://www.w3.org/2000/svg" xmlns:xlink="http://www.w3.org/1999/xlink" x="0px" y="0px"
	 viewBox="0 0 433.1 251.4" style="enable-background:new 0 0 433.1 251.4;" xml:space="preserve">
<style type="text/css">
	.st0{fill:#008FD1;}
</style>
<g>
	<path d="M57.4,25.9c0,9.1-1.9,15.3-5.5,18.8c-3.7,3.5-10.6,5.2-20.6,5.2c-10.1,0-17-1.7-20.5-5c-3.5-3.3-5.3-9.4-5.3-18.1
		c0-9.1,1.8-15.4,5.5-18.9c3.6-3.5,10.5-5.3,20.7-5.3c10,0,16.8,1.7,20.4,5.1C55.6,11.2,57.4,17.2,57.4,25.9z M54,239.5
		c0,1.2-0.4,2.2-1.1,3.1c-0.7,0.9-1.9,1.6-3.7,2.2c-1.7,0.6-4,1-6.9,1.3c-2.9,0.3-6.5,0.4-10.9,0.4c-4.4,0-8.1-0.2-10.9-0.4
		c-2.9-0.3-5.2-0.7-6.9-1.3c-1.7-0.6-3-1.3-3.7-2.2c-0.7-0.9-1.1-1.9-1.1-3.1V80.3c0-1.2,0.4-2.2,1.1-3.1c0.7-0.9,1.9-1.7,3.7-2.3
		c1.7-0.7,4-1.2,6.9-1.5c2.9-0.4,6.5-0.5,10.9-0.5c4.4,0,8.1,0.2,10.9,0.5c2.9,0.4,5.2,0.9,6.9,1.5c1.7,0.7,3,1.4,3.7,2.3
		c0.7,0.9,1.1,1.9,1.1,3.1V239.5z"/>
	<path d="M284.9,33.5c0,3.5-0.2,6.4-0.4,8.9c-0.3,2.4-0.7,4.4-1.3,5.9c-0.6,1.5-1.3,2.6-2.2,3.3c-0.9,0.7-1.9,1.1-3,1.1h-58v186.6
		c0,1.2-0.4,2.3-1.2,3.2c-0.8,1-2.1,1.7-3.8,2.3c-1.8,0.6-4.2,1.1-7.2,1.4c-3,0.4-6.8,0.5-11.4,0.5c-4.5,0-8.3-0.2-11.4-0.5
		c-3-0.4-5.5-0.8-7.2-1.4c-1.8-0.6-3.1-1.4-3.8-2.3c-0.8-1-1.2-2-1.2-3.2V52.6h-58c-1.2,0-2.2-0.4-3-1.1c-0.8-0.7-1.6-1.8-2.1-3.3
		c-0.6-1.5-1-3.5-1.3-5.9c-0.3-2.4-0.4-5.4-0.4-8.9c0-3.6,0.1-6.6,0.4-9.1c0.3-2.5,0.7-4.5,1.3-6c0.6-1.5,1.3-2.6,2.1-3.2
		c0.8-0.7,1.8-1,3-1h163.2c1.1,0,2.1,0.3,3,1c0.9,0.7,1.6,1.7,2.2,3.2c0.6,1.5,1,3.5,1.3,6C284.7,26.8,284.9,29.9,284.9,33.5z"/>
	<path class="st0" d="M429.6,82.4c0,2.7-0.1,5.1-0.4,6.9c-0.3,1.9-0.7,3.4-1.3,4.5c-0.6,1.1-1.3,1.9-2.1,2.4
		c-0.8,0.5-1.6,0.7-2.5,0.7h-45.8v49.9c0,1-0.2,1.8-0.7,2.6c-0.5,0.7-1.3,1.4-2.5,1.9c-1.2,0.5-2.7,1-4.7,1.3
		c-2,0.3-4.4,0.4-7.4,0.4c-2.9,0-5.4-0.1-7.4-0.4c-2-0.3-3.5-0.7-4.7-1.3c-1.2-0.5-2-1.2-2.6-1.9c-0.5-0.7-0.8-1.6-0.8-2.6V96.9H301
		c-0.9,0-1.7-0.2-2.4-0.7c-0.7-0.5-1.4-1.3-2-2.4c-0.6-1.1-1.1-2.6-1.4-4.5c-0.3-1.9-0.5-4.2-0.5-6.9c0-2.7,0.1-4.9,0.4-6.8
		c0.3-1.9,0.7-3.4,1.3-4.6c0.5-1.1,1.2-1.9,1.8-2.4c0.7-0.5,1.5-0.7,2.4-0.7h46.1V18c0-1,0.3-1.9,0.8-2.7c0.5-0.8,1.4-1.5,2.6-2.1
		c1.2-0.5,2.7-1,4.7-1.3c2-0.3,4.4-0.4,7.4-0.4c2.9,0,5.4,0.1,7.4,0.4c2,0.3,3.5,0.7,4.7,1.3c1.2,0.5,2,1.2,2.5,2.1
		c0.5,0.8,0.7,1.7,0.7,2.7v49.8h46.2c0.8,0,1.5,0.2,2.3,0.7c0.7,0.5,1.4,1.3,1.9,2.4c0.5,1.1,1,2.7,1.3,4.6
		C429.4,77.4,429.6,79.7,429.6,82.4z"/>
</g>
</svg>
