<?xml version="1.0" encoding="utf-8"?>
<!-- Generator: Adobe Illustrator 22.1.0, SVG Export Plug-In . SVG Version: 6.00 Build 0)  -->
<svg version="1.1" id="圖層_1" xmlns="http://www.w3.org/2000/svg" xmlns:xlink="http://www.w3.org/1999/xlink" x="0px" y="0px"
	 viewBox="0 0 1889.6 354.1" style="enable-background:new 0 0 1889.6 354.1;" xml:space="preserve">
<style type="text/css">
	.st0{opacity:0.3;}
	.st1{fill:#FFFFFF;}
	.st2{opacity:0.9766;fill:#57EFE3;enable-background:new    ;}
</style>
<title>kv-toHtml</title>
<g id="ce67ae18-804f-49c2-a971-785629d2bd17" class="st0">
	<path class="st1" d="M27.1,32.4c0,1.5-1.2,2.8-2.8,2.8c-1.5,0-2.8-1.2-2.8-2.8c0-1.5,1.2-2.8,2.8-2.8c0,0,0,0,0,0
		C25.9,29.7,27.1,30.9,27.1,32.4C27.1,32.4,27.1,32.4,27.1,32.4z"/>
	<path class="st1" d="M375.1,135.8c0,1.5-1.2,2.8-2.8,2.8c-1.5,0-2.8-1.2-2.8-2.8c0-1.5,1.2-2.8,2.8-2.8c0,0,0,0,0,0
		C373.9,133,375.1,134.3,375.1,135.8z"/>
	<path class="st1" d="M185.2,225c0,0.8-0.6,1.4-1.4,1.4s-1.4-0.6-1.4-1.4s0.6-1.4,1.4-1.4C184.5,223.6,185.2,224.2,185.2,225
		C185.2,225,185.2,225,185.2,225z"/>
	<path class="st1" d="M402.7,347.2c0,0.8-0.6,1.4-1.4,1.4s-1.4-0.6-1.4-1.4c0-0.8,0.6-1.4,1.4-1.4c0,0,0,0,0,0
		C402.1,345.8,402.7,346.5,402.7,347.2C402.7,347.2,402.7,347.2,402.7,347.2z"/>
	<path class="st1" d="M910.9,139.1c0,0.8-0.6,1.4-1.4,1.4c-0.8,0-1.4-0.6-1.4-1.4c0-0.8,0.6-1.4,1.4-1.4c0,0,0,0,0,0
		C910.2,137.7,910.9,138.3,910.9,139.1z"/>
	<path class="st1" d="M823.2,120c0,0.8-0.6,1.4-1.4,1.4c-0.8,0-1.4-0.6-1.4-1.4s0.6-1.4,1.4-1.4C822.6,118.6,823.2,119.2,823.2,120
		C823.2,120,823.2,120,823.2,120z"/>
	<path class="st1" d="M183.3,155.2c0,1.5-1.2,2.8-2.8,2.8s-2.8-1.2-2.8-2.8s1.2-2.8,2.8-2.8c0,0,0,0,0,0
		C182.1,152.4,183.3,153.7,183.3,155.2z"/>
	<path class="st1" d="M645.3,178.3c0,1.5-1.3,2.8-2.8,2.8c-1.5,0-2.8-1.3-2.8-2.8c0-1.5,1.2-2.8,2.8-2.8
		C644.1,175.5,645.3,176.7,645.3,178.3C645.3,178.3,645.3,178.3,645.3,178.3z"/>
	<path class="st1" d="M626.3,315.4c0,1.2-1,2.2-2.2,2.2c-1.2,0-2.2-1-2.2-2.2c0-1.2,1-2.2,2.2-2.2c0,0,0,0,0,0
		C625.3,313.2,626.3,314.1,626.3,315.4z"/>
	<path class="st1" d="M45.5,219.8c0,1.2-1,2.2-2.2,2.2c-1.2,0-2.2-1-2.2-2.2c0-1.2,1-2.2,2.2-2.2C44.5,217.6,45.5,218.6,45.5,219.8
		C45.5,219.8,45.5,219.8,45.5,219.8z"/>
	<path class="st1" d="M486.9,130.7c0,1.5-1.2,2.8-2.8,2.8s-2.8-1.2-2.8-2.8c0-1.5,1.2-2.8,2.8-2.8c0,0,0,0,0,0
		C485.6,127.9,486.9,129.2,486.9,130.7z"/>
	<path class="st1" d="M610,95.1c0,2.2-1.7,3.9-3.9,3.9c-2.2,0-3.9-1.7-3.9-3.9c0-2.2,1.7-3.9,3.9-3.9c0,0,0,0,0,0
		C608.3,91.2,610,93,610,95.1L610,95.1z"/>
	<path class="st1" d="M187.4,300.4c0,1.5-1.2,2.8-2.8,2.8c-1.5,0-2.8-1.2-2.8-2.8s1.2-2.8,2.8-2.8c0,0,0,0,0,0
		C186.2,297.7,187.4,298.9,187.4,300.4C187.4,300.4,187.4,300.4,187.4,300.4z"/>
	<path class="st1" d="M791.2,194c0.8,1.3,0.3,3-1,3.8c-1.3,0.8-3,0.3-3.8-1c-0.8-1.3-0.3-3,1-3.8c0,0,0,0,0,0
		C788.7,192.2,790.4,192.7,791.2,194z"/>
	<path class="st1" d="M1126.3,127.9c0.8,1.3,0.3,3-1,3.8s-3,0.3-3.8-1c-0.8-1.3-0.3-3,1-3.8C1123.9,126.1,1125.6,126.5,1126.3,127.9
		C1126.3,127.9,1126.3,127.9,1126.3,127.9z"/>
	<path class="st1" d="M1124.5,254.6c0.4,0.7,0.2,1.5-0.5,1.9s-1.5,0.2-1.9-0.5c-0.4-0.7-0.2-1.5,0.5-1.9c0,0,0,0,0,0
		C1123.3,253.7,1124.1,254,1124.5,254.6z"/>
	<path class="st1" d="M1360.8,297.3c0.4,0.7,0.2,1.5-0.5,1.9s-1.5,0.2-1.9-0.5c-0.4-0.7-0.2-1.5,0.5-1.9c0,0,0,0,0,0
		C1359.6,296.4,1360.4,296.6,1360.8,297.3z"/>
	<path class="st1" d="M1341.2,179.3c0.4,0.7,0.2,1.5-0.5,1.9s-1.5,0.2-1.9-0.5c-0.4-0.7-0.2-1.5,0.5-1.9
		C1340,178.4,1340.8,178.6,1341.2,179.3C1341.2,179.3,1341.2,179.3,1341.2,179.3z"/>
	<path class="st1" d="M1309.3,218.1c0.4,0.7,0.2,1.5-0.5,1.9c-0.7,0.4-1.5,0.2-1.9-0.5c-0.4-0.7-0.2-1.5,0.5-1.9
		C1308.1,217.2,1308.9,217.4,1309.3,218.1z"/>
	<path class="st1" d="M1837.1,104.4c0.4,0.7,0.1,1.5-0.5,1.9c-0.7,0.4-1.5,0.1-1.9-0.5c-0.4-0.7-0.1-1.5,0.5-1.9
		C1835.9,103.5,1836.7,103.7,1837.1,104.4C1837.1,104.4,1837.1,104.4,1837.1,104.4z"/>
	<path class="st1" d="M969.9,240.4c0.8,1.3,0.3,3-1,3.8c-1.3,0.8-3,0.3-3.8-1c-0.8-1.3-0.3-3,1-3.8c0,0,0,0,0,0
		C967.4,238.6,969.1,239,969.9,240.4z"/>
	<path class="st1" d="M847.5,28c0.8,1.3,0.3,3-1,3.8c-1.3,0.8-3,0.3-3.8-1c-0.8-1.3-0.3-3,1-3.8c0,0,0,0,0,0
		C845.1,26.2,846.8,26.7,847.5,28z"/>
	<path class="st1" d="M1486.7,29.8c0.8,1.3,0.3,3-1,3.8s-3,0.3-3.8-1c-0.8-1.3-0.3-3,1-3.8C1484.2,28,1485.9,28.4,1486.7,29.8
		C1486.7,29.8,1486.7,29.8,1486.7,29.8z"/>
	<path class="st1" d="M1512.7,173.7c0.6,1.1,0.2,2.4-0.8,3c-1.1,0.6-2.4,0.2-3-0.8s-0.2-2.4,0.8-3c0,0,0,0,0,0
		C1510.7,172.2,1512.1,172.6,1512.7,173.7z"/>
	<path class="st1" d="M1867.3,193.1c0.8,1.3,0.3,3-1,3.8c-1.3,0.8-3,0.3-3.8-1c-0.8-1.3-0.3-3,1-3.8
		C1864.9,191.3,1866.5,191.8,1867.3,193.1C1867.3,193.1,1867.3,193.1,1867.3,193.1z"/>
	<path class="st1" d="M1588.8,116c0.6,1,0.2,2.3-0.8,2.9c-1,0.6-2.3,0.2-2.9-0.8s-0.2-2.3,0.8-2.9c0,0,0,0,0,0
		C1586.9,114.6,1588.2,115,1588.8,116z"/>
	<path class="st1" d="M1889.4,145.3c0.4,0.7,0.2,1.5-0.5,1.9c-0.7,0.4-1.5,0.2-1.9-0.5c-0.4-0.7-0.2-1.5,0.5-1.9
		C1888.2,144.4,1889,144.6,1889.4,145.3C1889.4,145.3,1889.4,145.3,1889.4,145.3z"/>
	<path class="st1" d="M1800.7,182.9c0.8,1.3,0.3,3-1,3.8c-1.3,0.8-3,0.3-3.8-1c-0.8-1.3-0.3-3,1-3.8c0,0,0,0,0,0
		C1798.2,181.1,1799.9,181.6,1800.7,182.9z"/>
	<path class="st1" d="M1784.5,258.2c0.4,0.7,0.2,1.5-0.5,1.9s-1.5,0.2-1.9-0.5s-0.2-1.5,0.5-1.9S1784.1,257.5,1784.5,258.2z"/>
	<path class="st1" d="M1760.4,112.7c0.4,0.7,0.2,1.5-0.5,1.9c-0.7,0.4-1.5,0.2-1.9-0.5c-0.4-0.7-0.2-1.5,0.5-1.9
		C1759.2,111.8,1760,112,1760.4,112.7z"/>
	<path class="st1" d="M1728.2,160.6c0.8,1.3,0.3,3-1,3.8c-1.3,0.8-3,0.3-3.8-1c-0.8-1.3-0.3-3,1-3.8c0,0,0,0,0,0
		C1725.7,158.9,1727.4,159.3,1728.2,160.6z"/>
	<path class="st2" d="M55.5,341.5c0,0-4-9-9.1-11.5c-4.4-2.2-13.4,0.3-13.4,0.3s7.9-3.2,10.9-7.8s0.3-14.7,0.3-14.7s3.5,9,8.6,11.7
		c3.9,2.1,13.9-0.5,13.9-0.5s-9.5,4-11.3,8C52.9,332.4,55.5,341.5,55.5,341.5z"/>
	<path class="st2" d="M1452.9,163.4c0,0-3.5-7.8-7.8-9.9c-3.7-1.9-11.5,0.3-11.5,0.3s6.8-2.7,9.3-6.7s0.3-12.6,0.3-12.6
		s3,7.7,7.4,10c3.3,1.8,11.9-0.4,11.9-0.4s-8.1,3.4-9.7,6.9C1450.6,155.6,1452.9,163.4,1452.9,163.4z"/>
	<path class="st2" d="M71.8,171.2c0,0-2.5-5.5-5.6-7.1c-2.7-1.3-8.2,0.2-8.2,0.2s4.8-1.9,6.7-4.8s0.2-9,0.2-9s2.1,5.5,5.3,7.2
		c2.4,1.3,8.5-0.3,8.5-0.3s-5.8,2.5-7,4.9C70.2,165.5,71.8,171.2,71.8,171.2z"/>
	<path class="st2" d="M139.3,267.6c0,0,1.4-4.6,0.3-7.2c-0.9-2.2-5.1-4.1-5.1-4.1s3.9,1.3,6.5,0.6s4.8-5.3,4.8-5.3s-1.6,4.4-0.6,7.1
		c0.8,2,5.3,4.2,5.3,4.2s-4.8-1.5-6.8-0.7C141.3,263.4,139.3,267.6,139.3,267.6z"/>
</g>
</svg>
