<?xml version="1.0" encoding="utf-8"?>
<!-- Generator: Adobe Illustrator 24.3.0, SVG Export Plug-In . SVG Version: 6.00 Build 0)  -->
<svg version="1.1" id="kv" xmlns="http://www.w3.org/2000/svg" xmlns:xlink="http://www.w3.org/1999/xlink" x="0px" y="0px"
	 viewBox="0 0 1888.1 189.9" style="enable-background:new 0 0 1888.1 189.9;" xml:space="preserve">
<g>
	<path style="opacity:0.1;fill:#35C4DB;" d="M692.2,80.9c0,0-72.5-75.3-218.2-80.7S163.5,93,0,79.4c175.5,17.4,349-43,455.2-44.5
		C575.6,33.2,692.2,80.9,692.2,80.9z"/>
	<path style="opacity:0.1;fill:#35C4DB;" d="M1888.1,168.4c0,0-121.8-91.1-366.4-97.6c-244.6-6.5-313.5,109-588.1,92.5
		s-319.8-55.9-319.8-55.9s53,77.8,385.7,82.3c332.7,4.4,348.1-74.9,526.4-76.8C1728.1,110.9,1888.1,168.4,1888.1,168.4z"/>
</g>
</svg>
