<?xml version="1.0" encoding="utf-8"?>
<!-- Generator: Adobe Illustrator 24.3.0, SVG Export Plug-In . SVG Version: 6.00 Build 0)  -->
<svg version="1.1" id="kv" xmlns="http://www.w3.org/2000/svg" xmlns:xlink="http://www.w3.org/1999/xlink" x="0px" y="0px"
	 viewBox="0 0 2393.5 244.6" style="enable-background:new 0 0 2393.5 244.6;" xml:space="preserve">
<g>
	<path style="opacity:0.1;fill:#35C4DB;" d="M2393.5,161.8c0,0-100.2-150.6-301.6-161.4S1662.9,186,1436.9,158.8
		s-263.2-92.5-263.2-92.5s43.6,128.8,317.4,136.1S1919.3,72.7,2066,69.7C2232.4,66.3,2393.5,161.8,2393.5,161.8z"/>
	<path style="opacity:0.1;fill:#35C4DB;" d="M1219.9,203.7c0,0-100.2-150.6-301.6-161.4S489.3,227.9,263.2,200.7S0,108.2,0,108.2
		S43.6,237,317.4,244.3s428.2-129.7,574.9-132.7C1058.8,108.2,1219.9,203.7,1219.9,203.7z"/>
</g>
</svg>
