<svg xmlns="http://www.w3.org/2000/svg" viewBox="0 0 156.08 160.04"><g id="title"><path d="M120.05,116.8c.4-.44.78-.88,1.16-1.33l.53-.63c.45-.55.88-1.1,1.31-1.66l.25-.33c.49-.66,1-1.34,1.43-2,.15-.21.29-.43.43-.65.32-.48.63-1,.94-1.46l.46-.77c.29-.49.57-1,.85-1.48l.39-.71c.38-.71.75-1.43,1.09-2.15.08-.16.15-.31.22-.47.27-.59.54-1.18.8-1.78l.35-.84c.2-.49.39-1,.58-1.48l.33-.88c.19-.54.37-1.08.55-1.63.07-.24.16-.47.23-.71.23-.75.45-1.51.65-2.27.07-.28.14-.55.2-.83.13-.52.26-1,.37-1.56l.21-1,.27-1.48c.06-.32.11-.64.16-1,.1-.62.18-1.24.26-1.86,0-.32.07-.65.11-1,.06-.64.12-1.27.17-1.91,0-.34,0-.68.05-1s0-1,.06-1.44,0-.72,0-1.08,0-1,0-1.47c0-.33,0-.66,0-1,0-.77-.07-1.54-.13-2.31l-.09-.92c0-.51-.1-1-.16-1.53,0-.36-.1-.72-.15-1.08s-.13-.94-.21-1.4-.12-.72-.19-1.08c-.1-.52-.21-1-.32-1.57-.06-.28-.12-.57-.19-.86h0a56.45,56.45,0,1,0-65.77,68.24h0a56.6,56.6,0,0,0,10.56,1h0c.87,0,1.75,0,2.62,0h.1c.85,0,1.7-.09,2.56-.17l.18,0c.83-.08,1.65-.17,2.47-.28l.29-.05c.79-.11,1.57-.23,2.35-.38.15,0,.29-.06.43-.09.74-.14,1.47-.29,2.21-.46l.56-.15c.69-.17,1.38-.34,2.06-.54l.71-.22c.63-.19,1.27-.39,1.9-.6l.86-.32c.57-.2,1.15-.41,1.72-.64.34-.13.68-.29,1-.43.51-.22,1-.43,1.53-.66s.81-.39,1.21-.59.88-.41,1.31-.64,1-.54,1.51-.82c.33-.18.66-.35,1-.54.83-.48,1.64-1,2.45-1.51s1.46-1,2.18-1.5l.65-.48c.49-.37,1-.75,1.47-1.13l.68-.55c.5-.41,1-.83,1.48-1.26l.5-.44c.64-.57,1.26-1.15,1.86-1.75l.39-.39c.47-.47.94-1,1.39-1.45C119.68,117.22,119.86,117,120.05,116.8Z" style="fill:#f4ba85"/><path d="M56.11,27.1a56.45,56.45,0,0,0,74,73.9,56.45,56.45,0,0,0-74-73.9Z" style="fill:#f7caa1"/><path d="M30.77,109.94c-.27-.41-.52-.83-.77-1.24-1.49,2.2-2.92,4.39-4.3,6.62-.6,1-1.21,2-1.76,2.89l-.23.39c-1.94,3.3-3.64,6.47-5.05,9.41l-.14.28c-.4.85-.76,1.65-1.1,2.44l-.28.62q-.47,1.1-.87,2.13l-.25.63c-.25.67-.49,1.32-.7,1.94l-.17.53c-.21.62-.4,1.23-.57,1.8l0,.16a31.28,31.28,0,0,0-.75,3.37l0,.18c0,.26-.06.5-.09.74l0,.42c0,.15,0,.29,0,.43s0,.45,0,.67,0,.4,0,.58,0,.32,0,.47,0,.29.06.43,0,.2.06.26a.49.49,0,0,0,0,.11c1.9.59,9.51.05,24.81-9.18,1.85-1.11,3.76-2.35,5.22-3.3.72-.47,1.45-1,2.18-1.46,1-.65,2-1.34,2.94-2l2.15-1.53A56.18,56.18,0,0,1,30.77,109.94Z" style="fill:none"/><path d="M125.31,48.26c.47.72.91,1.44,1.34,2.17.21-.32.43-.63.63-1,1-1.5,1.92-2.94,2.77-4.29l.3-.48.36-.56c.91-1.48,1.81-3,2.84-4.81l.88-1.58c.67-1.21,1.3-2.38,1.89-3.52l.25-.49c.12-.22.24-.44.34-.66.68-1.35,1.33-2.72,1.92-4.06l.37-.85.13-.32c.43-1,.81-2,1.16-2.87l.13-.37.24-.62c.4-1.14.74-2.21,1-3.18l.09-.36.07-.31c.19-.78.34-1.51.45-2.18l0-.23.06-.42a14.11,14.11,0,0,0,.12-1.89c0-.11,0-.22,0-.33a4.35,4.35,0,0,0-.17-1,1.62,1.62,0,0,1-.06-.17,1.07,1.07,0,0,0-.07-.15l-.18-.06-.23-.05a3.55,3.55,0,0,0-.47-.06l-.42,0h-.8l-.43,0-.59.07-.21,0c-.52.08-1.09.18-1.69.31l-.3.06-.41.09-1,.27-.51.15-.58.17c-.45.14-.93.3-1.41.48l-.88.31q-.78.29-1.62.63l-.84.36c-.65.27-1.26.53-1.91.83l-.62.29c-2.34,1.1-4.89,2.44-7.55,4l-.25.14-.81.47c-.76.44-1.55.93-2.34,1.41l-1.39.87c-.78.49-1.58,1-2.39,1.53-2,1.33-4.08,2.74-6.16,4.22A56.13,56.13,0,0,1,125.31,48.26Z" style="fill:none"/><path d="M155.89,14a2.61,2.61,0,0,0,0-.31,18.06,18.06,0,0,0-.74-3c-.07-.21-.15-.43-.24-.64l-.07-.16a15.78,15.78,0,0,0-1-2.11l-.07-.12c-.13-.22-.26-.45-.41-.67a15.06,15.06,0,0,0-2-2.47,15.26,15.26,0,0,0-2.88-2.17c-.26-.15-.52-.28-.78-.42l-.12-.06a15.79,15.79,0,0,0-2.49-1l-.18-.06c-.22-.08-.44-.15-.67-.21A19.54,19.54,0,0,0,140.81,0h-.73a22.44,22.44,0,0,0-2.83.06c-.39,0-.78.06-1.17.11-.87.1-1.79.25-2.75.44l-.3.06-.64.13c-1.11.25-2.3.58-3.53,1-.35.1-.7.23-1.05.35l-.36.12c-.78.27-1.57.56-2.36.87-.55.21-1.09.42-1.64.65-.76.33-1.54.67-2.32,1-1,.45-2,.92-3,1.42l-.35.18c-.49.25-1,.49-1.47.75-.76.4-1.51.81-2.28,1.23l-1.29.73c-2.79,1.59-5.68,3.36-8.59,5.27l-.21.13-.07.06c-4.33,2.85-8.79,6-13.29,9.51a56.36,56.36,0,0,1,15.78,6.21c2.08-1.48,4.14-2.89,6.16-4.22.81-.53,1.61-1,2.39-1.53l1.39-.87c.79-.48,1.58-1,2.34-1.41l.81-.47.25-.14c2.66-1.54,5.21-2.88,7.55-4l.62-.29c.65-.3,1.26-.56,1.91-.83l.84-.36q.84-.34,1.62-.63l.88-.31c.48-.18,1-.34,1.41-.48l.58-.17.51-.15,1-.27.41-.09.3-.06c.6-.13,1.17-.23,1.69-.31l.21,0,.59-.07.43,0h.8l.42,0a3.55,3.55,0,0,1,.47.06l.23.05.18.06a1.07,1.07,0,0,1,.07.15,1.62,1.62,0,0,0,.06.17,4.35,4.35,0,0,1,.17,1c0,.11,0,.22,0,.33a14.11,14.11,0,0,1-.12,1.89l-.06.42,0,.23c-.11.67-.26,1.4-.45,2.18l-.07.31-.09.36c-.26,1-.6,2-1,3.18l-.24.62-.13.37c-.35.91-.73,1.88-1.16,2.87l-.13.32-.37.85c-.59,1.34-1.24,2.71-1.92,4.06-.1.22-.22.44-.34.66l-.25.49c-.59,1.14-1.22,2.31-1.89,3.52l-.88,1.58c-1,1.8-1.93,3.33-2.84,4.81l-.36.56-.3.48c-.85,1.35-1.78,2.79-2.77,4.29-.2.32-.42.63-.63,1l-.64,1c-1,1.48-2.06,3-3.15,4.54l-.37.52-.45.64L91.51,93.15a323.05,323.05,0,0,1-35.32,31.76c-1.64,1.25-3.33,2.5-5.12,3.79l-2.15,1.53c-1,.69-2,1.38-2.94,2-.73.5-1.46,1-2.18,1.46-1.46.95-3.37,2.19-5.22,3.3-15.3,9.23-22.91,9.77-24.81,9.18a.49.49,0,0,1,0-.11c0-.06,0-.12-.06-.26s-.05-.28-.06-.43,0-.3,0-.47,0-.38,0-.58,0-.44,0-.67,0-.28,0-.43l0-.42c0-.24.05-.48.09-.74l0-.18a31.28,31.28,0,0,1,.75-3.37l0-.16c.17-.57.36-1.18.57-1.8l.17-.53c.21-.62.45-1.27.7-1.94l.25-.63q.4-1,.87-2.13l.28-.62c.34-.79.7-1.59,1.1-2.44l.14-.28c1.41-2.94,3.11-6.11,5.05-9.41l.23-.39c.55-.94,1.16-1.91,1.76-2.89,1.38-2.23,2.81-4.42,4.3-6.62a56.28,56.28,0,0,1-6.64-15.59c-3.69,5.11-7.08,10.15-10,15l-.08.12c-1.8,3-3.46,5.87-4.94,8.69-.23.43-.45.86-.67,1.29-.4.77-.79,1.55-1.17,2.32-.24.49-.46,1-.68,1.46l-.15.32c-.47,1-.91,2-1.34,3-.33.8-.66,1.59-1,2.38-.22.56-.41,1.11-.61,1.66q-.42,1.19-.78,2.37l-.12.37c-.11.35-.22.71-.32,1-.36,1.26-.65,2.46-.87,3.56,0,.22-.07.43-.1.63l0,.28c-.17,1-.3,1.9-.38,2.79,0,.39-.06.78-.08,1.16a24.23,24.23,0,0,0,0,2.83v.15c0,.2,0,.4,0,.58a19.67,19.67,0,0,0,.62,3.34,6.78,6.78,0,0,0,.23.68l.06.16a14.6,14.6,0,0,0,1.06,2.46l.05.1c.14.27.29.53.45.79a14.73,14.73,0,0,0,2.22,2.81c7.94,7.76,21.61,5.62,41.8-6.55l1.56-1c1.65-1,3.39-2.14,5.33-3.44.87-.58,1.74-1.19,2.62-1.81l1.34-.93,1.24-.87c1.47-1,3-2.15,4.45-3.27l.65-.49c1.14-.85,2.3-1.75,3.48-2.67.53-.41,1.06-.82,1.59-1.25l.11-.08a341,341,0,0,0,28.85-25.84q2-2,4-4.1a356.15,356.15,0,0,0,28.72-33.6l.16-.22c.79-1.06,1.56-2.1,2.31-3.15,2.66-3.66,5.13-7.25,7.37-10.71l.22-.35c2-3.13,3.86-6.17,5.45-9l.1-.16c.73-1.31,1.44-2.64,2.17-4l.36-.71c.74-1.45,1.37-2.75,1.94-4l.06-.13c.62-1.35,1.2-2.72,1.74-4.07l.24-.62c.41-1.06.79-2.13,1.14-3.19.11-.31.21-.61.3-.92.39-1.23.7-2.33,1-3.41,0-.09.05-.18.07-.25.27-1.17.48-2.31.65-3.51,0-.19.05-.38.07-.56l0-.26a25.9,25.9,0,0,0,.19-2.59v-.14c0-.26,0-.53,0-.78A23.11,23.11,0,0,0,155.89,14Z" style="fill:#fde584"/></g></svg>