<svg xmlns="http://www.w3.org/2000/svg" viewBox="0 0 188.82 230.59"><g id="nav"><polygon points="167.69 16.22 174.04 19.56 172.83 12.48 177.97 7.47 170.87 6.44 167.69 0 164.51 6.44 157.41 7.47 162.55 12.48 161.34 19.56 167.69 16.22" style="fill:#f7aa1f"/><path d="M42.19,132.77C37,138,37.92,147.48,44.35,153.91l31.41,31.41c6.28,6.28,15.92,7.37,21.13,1.85l45.52-45.52c5.21-5.21,4.29-14.7-2.15-21.14L108.7,88.94c-6.28-6.28-15.94-7.36-21.15-1.83Z" style="fill:#b0b2b3"/><path d="M80.8,78.7a4.12,4.12,0,0,0,2.92,5l.22.06h0a4.34,4.34,0,0,0,5.3-3.09l1.82-6.92a4.12,4.12,0,0,0-2.92-5l-.22-.05h0a4.1,4.1,0,0,0-5,2.92,1.42,1.42,0,0,0,0,.22Z" style="fill:#d8d9da"/><path d="M135,45a40.31,40.31,0,1,0,28.69,49.26A40.31,40.31,0,0,0,135,45Z" style="fill:#fff"/><polygon points="87.29 185.57 137.83 134.67 95.29 92.42 44.74 143.33 87.29 185.57" style="fill:#d4eaff"/><path d="M29.32,210.61a11.7,11.7,0,0,0,0,16.55h0a11.71,11.71,0,0,0,16.55,0h0l46.59-46.59a11.7,11.7,0,0,0,0-16.55h0a11.69,11.69,0,0,0-16.54,0h0Z" style="fill:#d4eaff"/><path d="M3.42,184.72a11.71,11.71,0,0,0,0,16.54h0a11.71,11.71,0,0,0,16.55,0h0l46.59-46.59a11.69,11.69,0,0,0,0-16.55h0a11.7,11.7,0,0,0-16.54,0h0Z" style="fill:#d4eaff"/><path d="M31.93,204.33c.92-.92,2.45-.61,3.68.61l15.63,15.63c1.22,1.23,1.38,2.91.61,3.68h0c-.92.92-2.45.61-3.68-.61L32.54,208C31.32,206.78,31.16,205.1,31.93,204.33Z" style="fill:#ffa617"/><path d="M6,178.74c.92-.92,2.46-.62,3.69.61L25.34,195c1.23,1.23,1.38,2.91.62,3.68h0c-.93.93-2.46.61-3.69-.62L6.8,182.57c-1.22-1.22-1.38-2.91-.61-3.68Z" style="fill:#ffa617"/><path d="M76.06,113a17.56,17.56,0,0,0-22.68,9.19l-18.07-7.66A37.05,37.05,0,0,1,84,95.22h0l28.8,12.56L105,125.72Z" style="fill:#d4eaff"/><path d="M50.18,126.12a9.75,9.75,0,1,0-12.82,5.08A9.72,9.72,0,0,0,50.18,126.12Z" style="fill:#d4eaff"/><path d="M34.23,110.4c.61-.92,1.83-.93,3.21.16l15.32,11c1.24.92,1.7,2.3,1.09,3.21h0c-.62.93-2,.77-3.22-.15l-15.32-11C34.07,112.69,33.62,111.31,34.23,110.4Z" style="fill:#ffa617"/><path d="M147.63,127.92A17.56,17.56,0,0,0,169.85,117l18.39,6.13A37.5,37.5,0,0,1,141,146.46l-29.72-10.11,6.28-18.55Z" style="fill:#d4eaff"/><path d="M188.3,123.42a9.76,9.76,0,1,0-12.39,6.07A9.76,9.76,0,0,0,188.3,123.42Z" style="fill:#d4eaff"/><path d="M167.09,116.73a2.41,2.41,0,0,1,3.07-.31l16.09,9.66c1.38.77,2,2.3,1.23,3.06l.15.16c-.46,1.07-2,1.07-3.22.15l-16.09-9.65C166.94,119,166.33,117.49,167.09,116.73Z" style="fill:#ffa617"/><path d="M114.93,90.32c-8.13-12.7-.91-31.82,16.13-42.73,1.41-.9,2.85-1.69,4.3-2.43L135,45a40.31,40.31,0,1,0,28.69,49.25c.31-1.16.54-2.33.74-3.5-1.24,1-2.52,1.92-3.89,2.8C143.47,104.47,123.08,103,114.93,90.32Z" style="fill:#d4eaff"/><path d="M159.22,91.56c-16,10.26-35,9.19-42.46-2.4s-.45-29.31,15.59-39.57a47.37,47.37,0,0,1,6.28-3.39c-1.06-.39-2.16-.73-3.27-1-1.45.74-2.89,1.53-4.3,2.43-17,10.91-24.26,30-16.13,42.73s28.54,14.15,45.57,3.26c1.37-.88,2.65-1.82,3.89-2.8.19-1.13.32-2.27.42-3.4A48.41,48.41,0,0,1,159.22,91.56Z" style="fill:#c5c6c7"/><path d="M116.76,89.16c7.43,11.59,26.43,12.66,42.46,2.4a48.41,48.41,0,0,0,5.59-4.18,40.19,40.19,0,0,0-4.22-21.57,14,14,0,0,1-1.76,1.34c-4.83,3.09-10.64,2.67-13-1s-.29-9.08,4.56-12.18c.22-.14.46-.24.69-.37a39.84,39.84,0,0,0-12.49-7.44,47.37,47.37,0,0,0-6.28,3.39C116.31,59.85,109.35,77.56,116.76,89.16Z" style="fill:#57a5ff"/><path d="M151.12,53.64c-.23.13-.47.23-.69.37-4.85,3.1-6.88,8.56-4.56,12.18s8.13,4,13,1a14,14,0,0,0,1.76-1.34A40.26,40.26,0,0,0,151.12,53.64Z" style="fill:#29334f"/><path d="M151.12,53.64c-.23.13-.47.23-.69.37-4.85,3.1-6.88,8.56-4.56,12.18s8.13,4,13,1a14,14,0,0,0,1.76-1.34A40.26,40.26,0,0,0,151.12,53.64Z" style="fill:#fff"/><path d="M158.89,74.6c-1-1.5-3.48-1.63-5.59-.28s-3.05,3.68-2.08,5.2,3.46,1.63,5.58.28S159.85,76.11,158.89,74.6Z" style="fill:#fff"/><rect x="71.2" y="127.43" width="3.28" height="60.02" transform="translate(-90 97.62) rotate(-45)" style="fill:#fff"/><path d="M68.25,137.06a2.81,2.81,0,0,0,0,4l21,21a2.82,2.82,0,0,0,4,0l21.15-21.14a2.82,2.82,0,0,0,0-4L93.53,116.07a2.82,2.82,0,0,0-4,0L68.4,137.21Z" style="fill:#57a5ff"/><path d="M99.05,128a3.68,3.68,0,1,0,0,5.21A3.69,3.69,0,0,0,99.05,128Z" style="fill:#3469d2"/><path d="M102.11,136.29a3.68,3.68,0,1,0,5.21,0A3.9,3.9,0,0,0,102.11,136.29Z" style="fill:#3469d2"/><rect x="71.93" y="133.55" width="13.1" height="4.34" transform="translate(-72.98 95.25) rotate(-45)" style="fill:#3469d2"/><rect x="82.35" y="136.17" width="13.1" height="19.93" transform="translate(-77.3 105.66) rotate(-45)" style="fill:#3469d2"/></g></svg>