<?xml version="1.0" encoding="utf-8"?>
<!-- Generator: Adobe Illustrator 24.1.0, SVG Export Plug-In . SVG Version: 6.00 Build 0)  -->
<svg version="1.1" id="圖層_1" xmlns="http://www.w3.org/2000/svg" xmlns:xlink="http://www.w3.org/1999/xlink" x="0px" y="0px"
	 viewBox="0 0 1600 198" style="enable-background:new 0 0 1600 198;" xml:space="preserve">
<style type="text/css">
	.st0{fill:#1F2041;}
	.st1{fill:#FFFFFF;}
</style>
<path class="st0" d="M1600,0H0v77c289,0,389,121,789,121c401.1,0.2,500-121,811-121C1600,48,1600,0,1600,0z"/>
<path class="st1" d="M903.9,104.7c1.9,0,3.4,1.5,3.4,3.4c0,1.9-1.5,3.4-3.4,3.4c-1.9,0-3.4-1.5-3.4-3.4
	C900.5,106.2,902.1,104.7,903.9,104.7z"/>
<path class="st1" d="M981.6,73.9c1.5,0,2.7,1.2,2.7,2.7c0,1.5-1.2,2.7-2.7,2.7c-1.5,0-2.7-1.2-2.7-2.7
	C978.9,75.1,980.1,73.9,981.6,73.9z"/>
<path class="st1" d="M1116.2,108.8c0.9,0,1.7,0.7,1.7,1.7c0,0.9-0.8,1.7-1.7,1.7c-0.9,0-1.7-0.7-1.7-1.7
	C1114.5,109.5,1115.3,108.8,1116.2,108.8z"/>
<path class="st1" d="M622.6,109.1c1.5,0,2.7,1.2,2.7,2.7c0,1.5-1.2,2.7-2.7,2.7c-1.5,0-2.7-1.2-2.7-2.7
	C619.9,110.3,621.1,109.1,622.6,109.1z"/>
</svg>
