<?xml version="1.0" encoding="utf-8"?>
<!-- Generator: Adobe Illustrator 24.3.0, SVG Export Plug-In . SVG Version: 6.00 Build 0)  -->
<svg version="1.1" id="kv" xmlns="http://www.w3.org/2000/svg" xmlns:xlink="http://www.w3.org/1999/xlink" x="0px" y="0px"
	 viewBox="0 0 1920 57.5" style="enable-background:new 0 0 1920 57.5;" xml:space="preserve">
<linearGradient id="SVGID_1_" gradientUnits="userSpaceOnUse" x1="960" y1="7.1659" x2="960" y2="65.6613">
	<stop  offset="0" style="stop-color:#322832;stop-opacity:0.2"/>
	<stop  offset="0.9034" style="stop-color:#322832;stop-opacity:0"/>
</linearGradient>
<path style="fill:url(#SVGID_1_);" d="M1851.1,43.5c-35.8,0-65.2-17.3-68.5-39.4c-3.4,22.1-32.8,39.4-68.5,39.4
	s-65.2-17.3-68.5-39.4c-3.4,22.1-32.8,39.4-68.5,39.4c-35.8,0-65.2-17.3-68.5-39.4c-3.4,22.1-32.8,39.4-68.5,39.4
	c-35.8,0-65.2-17.3-68.5-39.4c-3.4,22.1-32.8,39.4-68.5,39.4s-65.2-17.3-68.5-39.4c-3.4,22.1-32.8,39.4-68.5,39.4
	s-65.2-17.3-68.5-39.4c-3.4,22.1-32.8,39.4-68.5,39.4c-35.8,0-65.2-17.3-68.5-39.4c-3.4,22.1-32.8,39.4-68.5,39.4
	c-35.8,0-65.2-17.3-68.5-39.4c-3.4,22.1-32.8,39.4-68.5,39.4s-65.2-17.3-68.5-39.4c-3.4,22.1-32.8,39.4-68.5,39.4
	s-65.2-17.3-68.5-39.4c-3.4,22.1-32.8,39.4-68.5,39.4c-35.8,0-65.2-17.3-68.5-39.4c-3.4,22.1-32.8,39.4-68.5,39.4
	c-35.8,0-65.2-17.3-68.5-39.4c-3.4,22.1-32.8,39.4-68.5,39.4s-65.2-17.3-68.5-39.4c-3.4,22.1-32.8,39.4-68.5,39.4
	C30.9,43.5,0.2,24.1,0,0h0v57.5h1920V0h0C1919.8,24.1,1889.1,43.5,1851.1,43.5z"/>
</svg>
