<?xml version="1.0" encoding="utf-8"?>
<!-- Generator: Adobe Illustrator 24.3.0, SVG Export Plug-In . SVG Version: 6.00 Build 0)  -->
<svg version="1.1" id="kv" xmlns="http://www.w3.org/2000/svg" xmlns:xlink="http://www.w3.org/1999/xlink" x="0px" y="0px"
	 viewBox="0 0 84.9 268.7" style="enable-background:new 0 0 84.9 268.7;" xml:space="preserve">
<path style="fill:#11197A;" d="M84.4,128c-0.2-1.4-0.9-3.1-2.2-5.4L12.2,3.1c0,0,0,0,0,0c-0.3-0.4-0.6-0.8-0.9-1.2
	c-2.6-2.6-6.7-2.6-9.3,0C0.9,3,0.2,4.4,0.1,5.8L0,5.8v260.5c0,0.7,0.2,1.3,0.7,1.8c0.9,0.9,2.4,0.9,3.4,0c0.5-0.5,0.7-1,0.7-1.6h0
	l26.3-133.1l36.7,9.1l0,0c4.5,2.1,9.9,1.4,13.6-2.2C84.7,136.9,85.7,132.1,84.4,128z"/>
</svg>
