<?xml version="1.0" encoding="utf-8"?>
<!-- Generator: Adobe Illustrator 15.0.0, SVG Export Plug-In  -->
<!DOCTYPE svg PUBLIC "-//W3C//DTD SVG 1.1//EN" "http://www.w3.org/Graphics/SVG/1.1/DTD/svg11.dtd" [
	<!ENTITY ns_flows "http://ns.adobe.com/Flows/1.0/">
]>
<svg version="1.1"
	 xmlns="http://www.w3.org/2000/svg" xmlns:xlink="http://www.w3.org/1999/xlink" xmlns:a="http://ns.adobe.com/AdobeSVGViewerExtensions/3.0/"
	 x="0px" y="0px" width="194px" height="42px" viewBox="-0.449 -0.298 194 42"
	 overflow="visible" enable-background="new -0.449 -0.298 194 42" xml:space="preserve">
<defs>
</defs>
<polygon fill="#FFFFFF" points="4.165,13.88 0,40.175 12.771,40.175 16.937,13.88 "/>
<polygon fill="#FFFFFF" points="6.552,0 19.324,0 17.33,11.108 4.556,11.108 "/>
<polygon fill="#FFFFFF" points="22.497,0.021 51.022,0.021 49.103,12.153 41.68,11.805 37.195,39.981 23.627,39.981 28.106,11.805 
	20.574,12.153 "/>
<path fill="#FFFFFF" d="M54.438,0.017h12.774l-1.76,11.093l-1.742,7.272h0.196c2.821-2.819,5.61-5.096,9.276-5.096
	c6.53,0,8.08,4.949,7.158,10.742l-2.556,16.146H65.309l2.15-13.568c0.216-1.385,0.292-3.119-1.535-3.119
	c-1.985,0-2.665,1.48-2.921,3.119l-2.152,13.568H48.075L54.438,0.017z"/>
<path fill="#FFFFFF" d="M93.913,27.149c-0.333,2.076,1.013,3.615,2.99,3.615c1.981,0,3.811-1.539,4.139-3.615
	c0.34-2.127-0.823-3.863-2.954-3.863C95.958,23.286,94.251,25.022,93.913,27.149 M113.389,27.351
	c-1.381,8.715-9.852,13.418-18.072,13.418c-8.215,0-15.193-4.703-13.813-13.418c1.459-9.213,9.506-14.06,18.172-14.06
	C108.34,13.291,114.85,18.138,113.389,27.351"/>
<path fill="#FFFFFF" d="M128.499,18.538h0.395c1.55-3.221,5.093-5.252,8.456-5.252c3.769,0,6.071,2.031,6.648,5.596h0.289
	c2.068-3.668,4.801-5.596,8.861-5.596c6.286,0,8.291,4.852,7.389,10.545l-2.579,16.344h-12.386l2.066-13.029
	c0.237-1.531,0.557-3.512-1.331-3.512c-1.829,0-2.144,1.98-2.384,3.512l-2.062,13.029h-12.385l2.063-13.029
	c0.242-1.531,0.555-3.512-1.318-3.512c-1.836,0-2.15,1.98-2.396,3.512l-2.06,13.029h-12.38l4.165-26.291h12.081L128.499,18.538z"/>
<path fill="#FFFFFF" d="M180.605,23.733c0.285-1.785-0.749-3.418-2.574-3.418c-1.937,0-3.128,1.584-3.418,3.418H180.605z
	 M173.752,29.181c-0.339,2.127-0.366,4.508,2.309,4.508c1.334,0,2.474-0.943,2.918-2.184h12.433
	c-2.692,6.34-10.23,9.264-16.27,9.264c-8.273,0-15.176-4.262-13.743-13.318c1.381-8.724,8.982-14.164,17.347-14.164
	c9.361,0,15.781,6.043,13.575,15.895H173.752z"/>
</svg>
