<?xml version="1.0" encoding="utf-8"?>
<!-- Generator: Adobe Illustrator 24.3.0, SVG Export Plug-In . SVG Version: 6.00 Build 0)  -->
<svg version="1.1" id="kv" xmlns="http://www.w3.org/2000/svg" xmlns:xlink="http://www.w3.org/1999/xlink" x="0px" y="0px"
	 viewBox="0 0 888.9 163.7" style="enable-background:new 0 0 888.9 163.7;" xml:space="preserve">
<g>
	<g>
		<path style="fill:#FFC857;" d="M49.8,112.5L99.6,58v103.1H88.7V86.1l-38.9,42.5L10.9,86.1v74.9H0V58L49.8,112.5z"/>
		<path style="fill:#FFC857;" d="M151.4,77.7c11.9,0,22,4.2,30.4,12.5c8.3,8.3,12.5,18.4,12.5,30.4c0,11.7-4.2,21.7-12.5,30.2
			c-8.3,8.5-18.5,12.7-30.4,12.7c-11.6,0-21.7-4.2-30.2-12.7c-8.5-8.5-12.7-18.5-12.7-30.2c0-11.9,4.2-22,12.7-30.4
			C129.7,81.9,139.8,77.7,151.4,77.7z M151.4,88.7c-9,0-16.6,3.1-22.7,9.2c-6.1,6.2-9.2,13.7-9.2,22.7c0,9,3.1,16.6,9.2,22.7
			c6.1,6.2,13.7,9.2,22.7,9.2c8.9,0,16.4-3.1,22.6-9.3c6.2-6.2,9.3-13.8,9.3-22.6c0-8.9-3.1-16.4-9.3-22.6
			C167.8,91.8,160.3,88.7,151.4,88.7z"/>
		<path style="fill:#FFC857;" d="M365.9,135.5l9.5,5.4c-3.6,6.7-8.7,12.2-15.5,16.4c-6.7,4.2-14.2,6.3-22.2,6.3
			c-11.6,0-21.7-4.2-30.2-12.7c-8.5-8.5-12.7-18.5-12.7-30.2c0-11.9,4.2-22,12.7-30.4c8.5-8.3,18.5-12.5,30.2-12.5
			c7.4,0,14.4,1.9,20.9,5.6c6.6,3.7,11.6,8.4,15.2,14.1l-55.4,48.8c5.6,4.2,12,6.3,19.2,6.3c6.1,0,11.6-1.5,16.6-4.6
			C359.3,144.9,363.1,140.8,365.9,135.5z M311.1,138.5l47.4-42.1c-6-5.2-12.9-7.7-20.8-7.7c-9,0-16.6,3.1-22.7,9.2
			c-6.1,6.2-9.2,13.7-9.2,22.7C305.8,127.1,307.6,133,311.1,138.5z"/>
		<path style="fill:#FFC857;" d="M687,135.5l9.5,5.4c-3.6,6.7-8.7,12.2-15.5,16.4c-6.7,4.2-14.2,6.3-22.2,6.3
			c-11.6,0-21.7-4.2-30.2-12.7c-8.5-8.5-12.7-18.5-12.7-30.2c0-11.9,4.2-22,12.7-30.4c8.5-8.3,18.5-12.5,30.2-12.5
			c7.4,0,14.4,1.9,20.9,5.6c6.5,3.7,11.6,8.4,15.2,14.1l-55.4,48.8c5.6,4.2,12,6.3,19.3,6.3c6.1,0,11.6-1.5,16.6-4.6
			C680.4,144.9,684.2,140.8,687,135.5z M632.2,138.5l47.4-42.1c-6-5.2-12.9-7.7-20.8-7.7c-9,0-16.6,3.1-22.7,9.2
			c-6.1,6.2-9.2,13.7-9.2,22.7C626.9,127.1,628.7,133,632.2,138.5z"/>
		<polygon style="fill:#FFC857;" points="609,58 584.7,129.7 560.9,59.5 537.1,129.7 512.7,58 501.2,58 537.1,163.7 560.9,93.4 
			584.7,163.7 620.6,58 		"/>
		<path style="fill:#FFC857;" d="M428.5,79.8c-3.5-1.3-7.3-2.1-11.5-2.1c-9.1,0-16.8,3.1-23,9.3c-6.2,6.2-9.3,13.9-9.3,23v51h10.9
			v-51c0-6.2,2.1-11.3,6.3-15.4c4.2-4,9.2-6.1,15.2-6.1c2.5,0,4.8,0.5,6.9,1.2L428.5,79.8z"/>
		<path style="fill:#FFC857;" d="M491.4,87.1c-6.2-6.2-13.9-9.3-23-9.3c0,0,0,0,0,0h0h-0.1h0c0,0,0,0,0,0c-9.1,0-16.8,3.1-23,9.3
			c-6.2,6.2-9.3,13.9-9.3,23v51h10.9v-51c0-6.2,2.1-11.3,6.3-15.4c4.2-4,9.2-6.1,15.2-6.1h0.1c6,0,11,2,15.2,6.1
			c4.2,4,6.3,9.2,6.3,15.4v51h10.9v-51C500.7,101,497.6,93.3,491.4,87.1z"/>
		<path style="fill:#FFC857;" d="M706.1,57.8v62.8c0-2.9,0.3-5.6,0.8-8.3c-0.5,2.7-0.8,5.4-0.8,8.3c0,11.7,4.2,21.7,12.5,30.2
			c8.3,8.5,18.5,12.7,30.4,12.7c11.6,0,21.7-4.2,30.2-12.7c8.5-8.5,12.7-18.5,12.7-30.2c0-11.9-4.2-22-12.7-30.4
			c-8.5-8.3-18.5-12.5-30.2-12.5c-11.9,0-22,4.2-30.4,12.5c-0.4,0.4-0.6,0.8-1,1.2c-0.2,0.2-0.4,0.4-0.6,0.6V57.8H706.1z M717,120.6
			c0-8.9,3.1-16.4,9.3-22.6c6.2-6.2,13.8-9.3,22.6-9.3c9,0,16.6,3.1,22.7,9.2c6.1,6.2,9.2,13.7,9.2,22.7c0,9-3.1,16.6-9.2,22.7
			c-6.2,6.2-13.7,9.2-22.7,9.2c-8.9,0-16.4-3.1-22.6-9.3C720.1,137,717,129.5,717,120.6z M708.8,105.5c0.1-0.2,0.1-0.5,0.2-0.8
			C708.9,105,708.9,105.3,708.8,105.5z"/>
		<path style="fill:#FFC857;" d="M293.8,37.6c0.3-2.3,0.5-4.7,0.6-7.2v0c0-13.8-5.8-25.7-13.9-30.4c-8.2,4.7-13.9,16.5-14,30.4v0
			c0,2.5,0.2,4.9,0.6,7.2c-3.5,3.2-5.7,7.6-5.7,12.5c0,3.1,0.9,6,2.4,8.5c2-2.6,5-4.7,8.7-6c0.8,1.4,1.7,2.6,2.7,3.7V92
			c-0.2-0.2-0.4-0.4-0.6-0.6c-0.4-0.4-0.6-0.8-1-1.2c-8.3-8.3-18.5-12.5-30.4-12.5c-11.6,0-21.7,4.2-30.2,12.5
			c-8.5,8.3-12.7,18.4-12.7,30.4c0,11.7,4.2,21.7,12.7,30.2c8.5,8.5,18.5,12.7,30.2,12.7c11.9,0,22-4.2,30.4-12.7
			c8.3-8.5,12.5-18.5,12.5-30.2c0-1.4,0-2.2,0-2.2V56c0.9-1,1.7-2.2,2.5-3.4c3.7,1.3,6.8,3.4,8.7,6c1.5-2.5,2.4-5.4,2.4-8.5
			C299.5,45.2,297.3,40.8,293.8,37.6z M258.6,108c-2-1.2-4.4-2-6.9-2c-7.3,0-13.3,5.9-13.3,13.2c0,1.3,0.2,2.6,0.6,3.8
			c-3.6,1.1-6.2,4.5-6.2,8.4c0,0.1,0,0.2,0,0.4c-6.1,0.8-10.8,6.1-10.8,12.4c0,0.2,0,0.3,0,0.5c-0.5-0.5-1.1-0.9-1.6-1.5
			c-6.2-6.2-9.2-13.7-9.2-22.7c0-9,3.1-16.6,9.2-22.7c6.1-6.1,13.7-9.2,22.7-9.2c8.9,0,16.4,3.1,22.6,9.3c1,1,1.9,2.1,2.8,3.2
			C264.1,101.4,260.3,104.2,258.6,108z M280.4,28.1c-4.3,0-7.8-3.5-7.8-7.8c0-4.3,3.5-7.8,7.8-7.8c4.3,0,7.8,3.5,7.8,7.8
			C288.2,24.6,284.7,28.1,280.4,28.1z"/>
	</g>
	<g>
		<path style="fill:#FFC857;" d="M814.2,134.7h-10.8l5.4-18.6h6.3L814.2,134.7z"/>
		<path style="fill:#FFC857;" d="M823.4,162.4c0-4,0.6-7.4,1.8-10.3c1.2-2.9,2.7-5.4,4.7-7.6c1.9-2.2,4.2-4,6.7-5.6
			c2.6-1.6,5.2-3,8.1-4.2c2-0.9,3.4-1.8,4.1-2.7c0.7-0.9,1.1-1.9,1.1-2.9c0-1.2-0.6-2.3-1.7-3.2c-1.1-1-3.1-1.5-5.9-1.5
			s-5.3,0.5-7.4,1.6c-2.2,1.1-4.1,2.4-5.7,3.9l-6-6.9c2.5-2.5,5.3-4.4,8.5-5.7c3.2-1.3,6.6-2,10.3-2c5.5,0,9.7,1.1,12.7,3.3
			c3,2.2,4.4,5.5,4.4,10c0,1.9-0.3,3.5-0.8,4.9c-0.5,1.4-1.3,2.6-2.2,3.7c-1,1.1-2.2,2.1-3.7,3c-1.5,0.9-3.2,1.8-5.2,2.7
			c-2.1,0.9-3.8,1.8-5.3,2.7c-1.4,0.9-2.6,1.7-3.6,2.6c-1,0.8-1.7,1.7-2.2,2.5c-0.5,0.9-0.9,1.7-1.1,2.6h24.6v8.9H823.4z"/>
		<path style="fill:#FFC857;" d="M879.7,162.4v-33.5h-7.9v-6.8c2.6-0.1,4.7-0.7,6.3-1.7c1.6-1,2.7-2.4,3.1-4.4h7.7v46.3H879.7z"/>
	</g>
</g>
</svg>
