<svg id="kv" xmlns="http://www.w3.org/2000/svg" viewBox="0 0 896.32 258.8"><path d="M53.19,112.54,103,58V161.08H92.08V86.15L53.19,128.61,14.3,86.15v74.93H3.38V58Z" style="fill:#ffc857"/><path d="M154.8,77.74a42.68,42.68,0,0,1,42.85,42.86,41.49,41.49,0,0,1-12.49,30.16,41,41,0,0,1-30.36,12.71q-17.48,0-30.17-12.71t-12.7-30.16a41,41,0,0,1,12.7-30.35A41.51,41.51,0,0,1,154.8,77.74Zm0,10.91a31.52,31.52,0,0,0-32,31.95,31.52,31.52,0,0,0,32,32,31.86,31.86,0,0,0,31.94-32A31.87,31.87,0,0,0,154.8,88.65Z" style="fill:#ffc857"/><path d="M369.3,135.48l9.53,5.36a42.32,42.32,0,0,1-15.49,16.38,41.44,41.44,0,0,1-22.22,6.25q-17.47,0-30.16-12.71t-12.7-30.16A41,41,0,0,1,311,90.25a43.13,43.13,0,0,1,66.27,7.13l-55.36,48.83A32.36,32.36,0,0,0,357.69,148,31.53,31.53,0,0,0,369.3,135.48Zm-54.77,3L362,96.4a31.79,31.79,0,0,0-52.78,24.2A31.82,31.82,0,0,0,314.53,138.46Z" style="fill:#ffc857"/><path d="M690.41,135.48l9.52,5.36a42.23,42.23,0,0,1-15.48,16.38,41.44,41.44,0,0,1-22.22,6.25q-17.46,0-30.16-12.71t-12.7-30.16a41,41,0,0,1,12.7-30.35,41.5,41.5,0,0,1,30.16-12.51,43.78,43.78,0,0,1,36.11,19.64L643,146.21A32.36,32.36,0,0,0,678.8,148,31.6,31.6,0,0,0,690.41,135.48Zm-54.78,3L683.07,96.4a31.8,31.8,0,0,0-52.79,24.2A31.89,31.89,0,0,0,635.63,138.46Z" style="fill:#ffc857"/><polygon points="612.42 57.97 588.09 129.73 564.27 59.49 540.46 129.73 516.13 57.97 504.62 57.97 540.46 163.66 564.27 93.42 588.09 163.66 623.93 57.97 612.42 57.97" style="fill:#ffc857"/><path d="M431.89,79.84a32.2,32.2,0,0,0-11.5-2.1A31.87,31.87,0,0,0,388,110.09v51H399v-51a20.47,20.47,0,0,1,6.25-15.38,21,21,0,0,1,15.18-6.06,21.54,21.54,0,0,1,6.94,1.18Z" style="fill:#ffc857"/><path d="M494.78,87.07a31.27,31.27,0,0,0-23-9.33h-.09a31.87,31.87,0,0,0-32.34,32.35v51h10.91v-51a20.51,20.51,0,0,1,6.25-15.38,21.05,21.05,0,0,1,15.18-6.06h.09A21.05,21.05,0,0,1,487,94.71a20.51,20.51,0,0,1,6.25,15.38v51h10.91v-51A31.27,31.27,0,0,0,494.78,87.07Z" style="fill:#ffc857"/><path d="M709.47,57.78V120.6a44.13,44.13,0,0,1,.76-8.31,46.77,46.77,0,0,0-.76,8.31A41.5,41.5,0,0,0,722,150.76a41,41,0,0,0,30.36,12.71q17.48,0,30.17-12.71t12.7-30.16a41,41,0,0,0-12.7-30.35,42.86,42.86,0,0,0-60.53,0c-.36.36-.61.77-1,1.15-.2.22-.43.41-.63.63V57.78Zm10.91,62.82a32,32,0,1,1,63.9,0,32,32,0,1,1-63.9,0Zm-8.2-15.1c.09-.24.13-.51.22-.75C712.31,105,712.27,105.26,712.18,105.5Z" style="fill:#ffc857"/><path d="M297.14,37.58a49.24,49.24,0,0,0,.55-7.17v0c0-13.85-5.8-25.68-13.94-30.38-8.16,4.7-13.95,16.53-14,30.38v0a47.87,47.87,0,0,0,.56,7.17,16.86,16.86,0,0,0-5.74,12.53A16.46,16.46,0,0,0,267,58.58a18.24,18.24,0,0,1,8.71-6,28.18,28.18,0,0,0,2.72,3.75V92c-.2-.22-.42-.41-.62-.63-.35-.38-.6-.79-1-1.15a42.88,42.88,0,0,0-60.54,0,41,41,0,0,0-12.7,30.35q0,17.47,12.7,30.16t30.17,12.71a41,41,0,0,0,30.37-12.71,41.49,41.49,0,0,0,12.49-30.16V56a28.43,28.43,0,0,0,2.46-3.42,18.24,18.24,0,0,1,8.71,6,16.46,16.46,0,0,0,2.37-8.47A16.86,16.86,0,0,0,297.14,37.58ZM262,108a13.25,13.25,0,0,0-20.19,11.29,13.5,13.5,0,0,0,.58,3.83,8.86,8.86,0,0,0-6.21,8.44c0,.13,0,.25,0,.38a12.5,12.5,0,0,0-10.81,12.39c0,.16,0,.3,0,.46-.54-.48-1.09-.94-1.61-1.47a30.84,30.84,0,0,1-9.23-22.72A32,32,0,0,1,269.09,98a31.58,31.58,0,0,1,2.77,3.17A11.61,11.61,0,0,0,262,108Zm21.79-79.88a7.85,7.85,0,1,1,7.84-7.85A7.84,7.84,0,0,1,283.75,28.12Z" style="fill:#ffc857"/><path d="M817.63,134.68H806.84l5.43-18.59h6.28Z" style="fill:#ffc857"/><path d="M826.76,162.41a28.46,28.46,0,0,1,1.82-10.33,25.25,25.25,0,0,1,4.66-7.6,30.06,30.06,0,0,1,6.75-5.6,68.38,68.38,0,0,1,8.07-4.2,11.28,11.28,0,0,0,4.11-2.68,4.47,4.47,0,0,0,1.12-2.88,4.2,4.2,0,0,0-1.72-3.24q-1.73-1.45-5.89-1.45a16.54,16.54,0,0,0-7.44,1.62,23.24,23.24,0,0,0-5.73,3.93l-6-6.94a25,25,0,0,1,8.47-5.73,26.94,26.94,0,0,1,10.32-2q8.26,0,12.7,3.31t4.44,10a14.29,14.29,0,0,1-.76,4.86,11.43,11.43,0,0,1-2.25,3.74,16.41,16.41,0,0,1-3.71,3,53,53,0,0,1-5.19,2.75,45.86,45.86,0,0,0-5.26,2.71,28.12,28.12,0,0,0-3.61,2.58,11.26,11.26,0,0,0-2.25,2.55,9.23,9.23,0,0,0-1.12,2.61H863v8.94Z" style="fill:#ffc857"/><path d="M883.07,162.41V128.93h-7.94v-6.82a13.32,13.32,0,0,0,6.31-1.66,6.81,6.81,0,0,0,3.15-4.36h7.67v46.32Z" style="fill:#ffc857"/><text transform="translate(0 251.21)" style="isolation:isolate;font-size:53.07477951049805px;fill:#fff;font-family:NotoSansCJKtc-Bold-B5pc-H, Noto Sans CJK TC">技術在我們手上</text><text transform="translate(471.72 250.6)" style="isolation:isolate;font-size:53.07477951049805px;fill:#fff;font-family:NotoSansCJKtc-Bold-B5pc-H, Noto Sans CJK TC">世界就在我們手上</text><path d="M435.87,228.72a2.27,2.27,0,0,0-.94-.95l-9.86-2.28,3.6-15.54a1.51,1.51,0,0,0-.76-1.7,1.23,1.23,0,0,0-1.7.37l-17.06,22.75a1.17,1.17,0,0,0-.19,1.33,2.29,2.29,0,0,0,1,1l9.85,2.27-3.6,15.54a1.53,1.53,0,0,0,.76,1.71h.38a1.26,1.26,0,0,0,1.51-.57l17.06-22.75C436.06,229.66,436.06,229.29,435.87,228.72Z" style="fill:#ffc857"/></svg>